<?xml version="1.0" encoding="utf-8"?><svg xmlns="http://www.w3.org/2000/svg" xmlns:xlink="http://www.w3.org/1999/xlink"><symbol viewBox="0 0 24 24" id="arrow-black" xmlns="http://www.w3.org/2000/svg"><path fill="none" d="M0 0h24v24H0z"/><path d="M12.5 12.5L16 9l1 1-4.5 4.5L8 10l1-1z"/></symbol><symbol viewBox="0 0 240.823 240.823" id="arrow-left"><path d="M57.633 129.007L165.93 237.268c4.752 4.74 12.451 4.74 17.215 0 4.752-4.74 4.752-12.439 0-17.179l-99.707-99.671 99.695-99.671c4.752-4.74 4.752-12.439 0-17.191-4.752-4.74-12.463-4.74-17.215 0L57.621 111.816c-4.679 4.691-4.679 12.511.012 17.191z"/></symbol><symbol viewBox="0 0 12 11.358" id="attach" xmlns="http://www.w3.org/2000/svg"><defs><style>.aca{opacity:.6}.acb{fill:#333}</style></defs><g class="aca"><path class="acb" d="M10.876 1.121a3.841 3.841 0 00-5.425 0L.799 5.771a2.74 2.74 0 003.875 3.875l4.263-4.263a1.644 1.644 0 10-2.325-2.325L3.826 5.846a.548.548 0 10.775.775l2.788-2.787a.548.548 0 11.775.775L3.899 8.871a1.644 1.644 0 01-2.325-2.325l4.65-4.65a2.74 2.74 0 113.875 3.875l-4.65 4.65a.548.548 0 00.775.775l4.65-4.65a3.836 3.836 0 000-5.425z"/></g></symbol><symbol viewBox="0 0 24 24" id="availability" xmlns="http://www.w3.org/2000/svg"><path d="M16 5.6h3.2a.8.8 0 01.8.8v12.8a.8.8 0 01-.8.8H4.8a.8.8 0 01-.8-.8V6.4a.8.8 0 01.8-.8H8V4h1.6v1.6h4.8V4H16zm-1.6 1.6H9.6v1.6H8V7.2H5.6v3.2h12.8V7.2H16v1.6h-1.6zm4 4.8H5.6v6.4h12.8z"/></symbol><symbol viewBox="-5 -5 24 24" id="back" xmlns="http://www.w3.org/2000/svg"><path d="M3.35 5.931H14v1.747H3.35l4.693 4.7-1.237 1.237L0 6.806 6.806 0l1.237 1.237z"/></symbol><symbol viewBox="0 0 24 24" id="burger-menu" xmlns="http://www.w3.org/2000/svg"><path fill="none" class="afb" d="M0 0h24v24H0z"/><path d="M5 7h15v1.556H5zm0 4.444h15V13H5zm0 4.444h15v1.556H5z"/></symbol><symbol viewBox="0 0 16 16" id="calendar" xmlns="http://www.w3.org/2000/svg"><path d="M12 1.6h3.2a.8.8 0 01.8.8v12.8a.8.8 0 01-.8.8H.8a.8.8 0 01-.8-.8V2.4a.8.8 0 01.8-.8H4V0h1.6v1.6h4.8V0H12zm-1.6 1.6H5.6v1.6H4V3.2H1.6v3.2h12.8V3.2H12v1.6h-1.6zm4 4.8H1.6v6.4h12.8z"/></symbol><symbol viewBox="0 0 17 16.995" id="cancel" xmlns="http://www.w3.org/2000/svg"><path d="M14.514 2.485a8.5 8.5 0 100 12.023 8.513 8.513 0 000-12.023zm-.931 11.092a7.185 7.185 0 110-10.161 7.194 7.194 0 010 10.162z"/><path d="M11.34 10.318L9.476 8.456l1.864-1.862a.659.659 0 10-.931-.932L8.543 7.525 6.677 5.662a.659.659 0 10-.931.932L7.61 8.456l-1.864 1.862a.659.659 0 00.931.932l1.866-1.863 1.866 1.863a.659.659 0 10.931-.932z"/></symbol><symbol viewBox="0 0 512 512" id="card-game" xmlns="http://www.w3.org/2000/svg"><path d="M500.879 141.084l-101.345-27.155V15c0-8.284-6.716-15-15-15H127.467c-8.284 0-15 6.716-15 15v98.929L11.121 141.084C3.119 143.228-1.63 151.453.514 159.455l91.483 341.423c2.144 8.002 10.369 12.751 18.371 10.607L256 472.464l145.631 39.021c8.002 2.144 16.227-2.605 18.371-10.606l91.483-341.423c2.144-8.002-2.605-16.227-10.606-18.372zM142.467 30h227.066v323.467H142.467zm-25.374 448.625L33.375 166.18l79.092-21.192v223.479c0 8.284 6.716 15 15 15h199.206l9.75 36.39zm277.814 0l-80.951-21.69 44.72-11.983c8.002-2.144 12.751-10.369 10.607-18.371l-11.552-43.114h26.803c8.284 0 15-6.716 15-15V144.988l79.092 21.192z"/></symbol><symbol viewBox="0 0 14.628 14.628" id="clock" xmlns="http://www.w3.org/2000/svg"><path d="M9.984 8.758L7.829 7.142V3.85a.6.6 0 00-1.2 0v3.592a.6.6 0 00.239.479l2.394 1.8a.6.6 0 00.718-.958z"/><path d="M7.314 0a7.314 7.314 0 107.314 7.314A7.322 7.322 0 007.314 0zm0 13.5A6.181 6.181 0 1113.5 7.314 6.189 6.189 0 017.314 13.5z"/></symbol><symbol viewBox="0 0 24 24" id="close" xmlns="http://www.w3.org/2000/svg"><path d="M12 10.586l4.95-4.95 1.414 1.414-4.95 4.95 4.95 4.95-1.414 1.414-4.95-4.95-4.95 4.95-1.414-1.414 4.95-4.95-4.95-4.95L7.05 5.636z"/></symbol><symbol viewBox="0 0 30 30" id="dashboard" xmlns="http://www.w3.org/2000/svg"><path fill="none" d="M0 0h30v30H0z"/><path d="M13.937 13H8.312A1.314 1.314 0 017 11.688V8.313A1.314 1.314 0 018.312 7h5.625a1.314 1.314 0 011.313 1.313v3.375A1.314 1.314 0 0113.937 13zM8.312 8.125a.188.188 0 00-.187.187v3.376a.188.188 0 00.187.188h5.625a.188.188 0 00.188-.188V8.313a.188.188 0 00-.188-.187zm0 0M13.937 25H8.312A1.314 1.314 0 017 23.688v-7.875A1.314 1.314 0 018.312 14.5h5.625a1.314 1.314 0 011.313 1.313v7.875A1.314 1.314 0 0113.937 25zm-5.625-9.375a.188.188 0 00-.187.188v7.875a.188.188 0 00.187.187h5.625a.188.188 0 00.188-.187v-7.875a.188.188 0 00-.188-.188zm0 0M23.688 25h-5.625a1.314 1.314 0 01-1.313-1.312v-3.375A1.314 1.314 0 0118.063 19h5.625A1.314 1.314 0 0125 20.313v3.375A1.314 1.314 0 0123.688 25zm-5.625-4.875a.188.188 0 00-.188.188v3.375a.188.188 0 00.188.187h5.625a.188.188 0 00.187-.187v-3.375a.188.188 0 00-.187-.188zm0 0M23.688 17.5h-5.625a1.314 1.314 0 01-1.313-1.313V8.313A1.314 1.314 0 0118.063 7h5.625A1.314 1.314 0 0125 8.312v7.876a1.314 1.314 0 01-1.312 1.312zm-5.625-9.375a.188.188 0 00-.188.187v7.876a.188.188 0 00.188.188h5.625a.188.188 0 00.187-.188V8.313a.188.188 0 00-.187-.187zm0 0"/></symbol><symbol viewBox="0 0 469.333 469.333" id="edit" xmlns="http://www.w3.org/2000/svg"><path d="M21.333 426.667H448v42.667H21.333zM327.253 0L64 263.253V384h120.747L448 120.747 327.253 0zM167.04 341.333h-60.373V280.96L327.253 60.373l60.373 60.373L167.04 341.333z"/></symbol><symbol viewBox="0 0 17.909 12.76" id="email" xmlns="http://www.w3.org/2000/svg"><defs><style>.ana{fill:#fff}</style></defs><path class="ana" d="M17.896 1.284c0-.02.014-.04.013-.061l-5.465 5.266 5.459 5.1c0-.036-.007-.073-.007-.11zM11.61 7.299L9.379 9.446a.583.583 0 01-.8.006L6.347 7.38l-5.494 5.3a1.266 1.266 0 00.427.085h15.38a1.265 1.265 0 00.614-.169z"/><path class="ana" d="M8.967 8.222L17.308.188A1.264 1.264 0 0016.664 0H1.284a1.268 1.268 0 00-.807.3zM0 1.48v10a1.269 1.269 0 00.055.331L5.481 6.58z"/></symbol><symbol viewBox="0 0 18.331 15.331" id="enter" xmlns="http://www.w3.org/2000/svg"><path d="M17.692 0h-11.5a.639.639 0 00-.639.639V5.11a.639.639 0 101.278 0V1.278h10.222v12.775H6.833v-3.832a.639.639 0 00-1.278 0v4.472a.639.639 0 00.639.639h11.5a.639.639 0 00.639-.639V.639A.639.639 0 0017.692 0z"/><path d="M9.936 9.769a.639.639 0 00.9.9l2.555-2.555q.022-.022.042-.046l.017-.023.02-.027.017-.028.015-.026.014-.029.013-.028c0-.009.007-.019.01-.029l.011-.03c.004-.01.005-.019.007-.029l.008-.032c.002-.011 0-.023.005-.034s0-.018 0-.028a.643.643 0 000-.126v-.028c0-.009 0-.023-.005-.034s-.005-.021-.008-.032 0-.019-.007-.029-.007-.02-.011-.03l-.01-.029c-.003-.01-.009-.018-.013-.028l-.014-.029-.015-.026-.017-.028-.02-.027-.017-.023q-.02-.024-.042-.046L10.84 4.659a.639.639 0 00-.9.9l1.46 1.468H.639A.639.639 0 000 7.666a.639.639 0 00.639.639H11.4z"/></symbol><symbol viewBox="0 0 24 24" id="envelope" xmlns="http://www.w3.org/2000/svg"><path d="M4.8 5h14.4a.8.8 0 01.8.8v12.8a.8.8 0 01-.8.8H4.8a.8.8 0 01-.8-.8V5.8a.8.8 0 01.8-.8zm13.6 3.39l-6.342 5.68L5.6 8.373V17.8h12.8zM6.009 6.6l6.04 5.33L18 6.6z"/></symbol><symbol viewBox="0 0 10 20" id="facebook" xmlns="http://www.w3.org/2000/svg"><defs><style>.aqa{fill:#fff}</style></defs><path class="aqa" d="M6.25 6.875v-2.5a1.25 1.25 0 011.25-1.25h1.25V0h-2.5A3.75 3.75 0 002.5 3.75v3.125H0V10h2.5v10h3.75V10h2.5L10 6.875z"/></symbol><symbol viewBox="0 0 24 24" id="favorite" xmlns="http://www.w3.org/2000/svg"><path fill="none" d="M0 0h24v24H0z"/><path fill="#fff" d="M16.609 4a5.228 5.228 0 00-4.218 2.145 7.13 7.13 0 00-.392.556 7.05 7.05 0 00-.392-.556A5.228 5.228 0 007.389 4 5.519 5.519 0 002 9.789c0 3.611 2.959 7.014 9.6 11.034a.781.781 0 00.81 0c6.636-4.02 9.6-7.423 9.6-11.034A5.519 5.519 0 0016.609 4zm1.764 10.285A29.082 29.082 0 0112 19.239a29.083 29.083 0 01-6.373-4.954 6.8 6.8 0 01-2.064-4.5 3.965 3.965 0 013.828-4.227 3.661 3.661 0 012.958 1.508 5.8 5.8 0 01.906 1.633.781.781 0 001.492 0 5.794 5.794 0 01.878-1.6 3.671 3.671 0 012.986-1.544 3.965 3.965 0 013.828 4.227 6.8 6.8 0 01-2.066 4.503z"/></symbol><symbol viewBox="0 0 511 512" id="filter" xmlns="http://www.w3.org/2000/svg"><path d="M492.477 0H20.5C9.453 0 .5 8.953.5 20c0 55.695 23.875 108.867 65.504 145.871l87.59 77.852a71.265 71.265 0 0123.898 53.222v195.032c0 15.937 17.813 25.492 31.09 16.636l117.996-78.66a20.005 20.005 0 008.906-16.64V296.945a71.265 71.265 0 0123.899-53.222l87.586-77.852C488.598 128.867 512.473 75.695 512.473 20c0-11.047-8.953-20-19.996-20zm-72.082 135.973l-87.586 77.855c-23.72 21.086-37.325 51.379-37.325 83.113V402.61l-77.996 51.996v-157.66a111.301 111.301 0 00-37.324-83.117l-87.586-77.851c-28.07-24.957-45.988-59.153-50.785-95.98H471.18c-4.797 36.827-22.711 71.023-50.785 95.976zm0 0"/></symbol><symbol viewBox="0 0 30 30" id="flashcards" xmlns="http://www.w3.org/2000/svg"><path fill="none" d="M0 0h30v30H0z"/><path d="M22.445 11.508h-5.792L20.515 5h-9.33L7 15.738h4.827l-2.9 9.762zM9.252 14.436L12.47 6.3h5.47l-3.861 6.51h4.828l-7.08 7.484 2.573-5.858z"/></symbol><symbol viewBox="0 0 30 30" id="giftcards" xmlns="http://www.w3.org/2000/svg"><path fill="none" d="M0 0h30v30H0z"/><path d="M5 7v15.234h20V7zm18.828 5.859h-8.557a2.342 2.342 0 00-3.2-3.2V8.172h11.757zM8.555 11.688a1.172 1.172 0 012.344 0v1.171H9.727a1.173 1.173 0 01-1.172-1.171zm3.515 1.171v-1.171a1.172 1.172 0 111.172 1.171zM10.9 8.172v1.487a2.342 2.342 0 00-3.2 3.2H6.172V8.172zm-4.728 5.859h3.6a4.826 4.826 0 00-1.219 3.206v.309a1.173 1.173 0 01-1.172 1.172v1.172a2.346 2.346 0 002.344-2.344v-.309a3.632 3.632 0 011.175-2.683v6.509H6.172zm5.9 7.031v-6.508a3.632 3.632 0 011.172 2.684v.309a2.346 2.346 0 002.344 2.344v-1.172a1.173 1.173 0 01-1.172-1.172v-.309a4.826 4.826 0 00-1.216-3.207h10.628v7.031zm0 0"/><path d="M16.758 16.375h5.859v1.172h-5.859zm0 0"/></symbol><symbol viewBox="0 0 24 24" id="globe" xmlns="http://www.w3.org/2000/svg"><path d="M16.95 7.05a7 7 0 00-9.9 9.9 7 7 0 009.9-9.9zm-.579.579a6.218 6.218 0 01.956 1.23h-2.721a10.57 10.57 0 00-.464-1.659 5.673 5.673 0 00-.594-1.181 6.143 6.143 0 012.823 1.61zM14.078 12a16.222 16.222 0 01-.157 2.284h-3.842A16.218 16.218 0 019.922 12a16.183 16.183 0 01.162-2.321h3.832A16.188 16.188 0 0114.078 12zM12 5.819c.468 0 .982.623 1.376 1.665a9.526 9.526 0 01.394 1.376h-3.54a9.519 9.519 0 01.394-1.375c.394-1.043.908-1.666 1.376-1.666zm-4.371 1.81a6.143 6.143 0 012.823-1.615A5.673 5.673 0 009.858 7.2a10.564 10.564 0 00-.463 1.66H6.673a6.22 6.22 0 01.956-1.231zM5.819 12a6.173 6.173 0 01.449-2.321h2.989a17.541 17.541 0 00-.005 4.6h-3A6.176 6.176 0 015.819 12zm1.81 4.371a6.215 6.215 0 01-.978-1.271h2.736a10.618 10.618 0 00.471 1.7 5.674 5.674 0 00.594 1.181 6.143 6.143 0 01-2.823-1.61zM12 18.181c-.468 0-.982-.623-1.376-1.665a9.576 9.576 0 01-.4-1.413h3.554a9.578 9.578 0 01-.4 1.413c-.396 1.042-.91 1.665-1.378 1.665zm4.371-1.81a6.143 6.143 0 01-2.822 1.616 5.673 5.673 0 00.593-1.187 10.618 10.618 0 00.471-1.7h2.736a6.218 6.218 0 01-.978 1.271zm-1.623-2.087A17.112 17.112 0 0014.9 12a17.091 17.091 0 00-.154-2.321h2.989a6.222 6.222 0 01.015 4.6z"/></symbol><symbol viewBox="0 0 31 31" id="google" xmlns="http://www.w3.org/2000/svg"><defs><style>.awa{fill:#fbbb00}.awb{fill:#518ef8}.awc{fill:#28b446}.awd{fill:#f14336}</style></defs><path class="awa" d="M6.87 18.734l-1.079 4.028-3.944.083a15.527 15.527 0 01-.114-14.474l3.511.644 1.538 3.49a9.25 9.25 0 00.087 6.228z"/><path class="awb" d="M30.729 12.604a15.494 15.494 0 01-5.525 14.983l-4.423-.226-.626-3.907a9.238 9.238 0 003.975-4.717h-8.288v-6.132H30.73z"/><path class="awc" d="M25.203 27.587a15.5 15.5 0 01-23.356-4.742l5.023-4.112a9.219 9.219 0 0013.284 4.72z"/><path class="awd" d="M25.394 3.568l-5.022 4.111a9.217 9.217 0 00-13.589 4.826L1.734 8.372a15.5 15.5 0 0123.661-4.8z"/></symbol><symbol viewBox="0 0 30 30" id="group-classes" xmlns="http://www.w3.org/2000/svg"><path fill="none" d="M0 0h30v30H0z"/><path d="M13.683 9.648v7.394l6.4-3.7zm1.406 2.437l2.181 1.26-2.181 1.26zm8.2 9.926a2.109 2.109 0 10-3.487-.02 3.5 3.5 0 00-1.039.916 3.5 3.5 0 00-1.019-.908 2.109 2.109 0 10-3.487 0 3.494 3.494 0 00-1.022.907 3.5 3.5 0 00-.989-.887 2.109 2.109 0 10-3.486-.039A3.471 3.471 0 007 24.999h1.406a2.063 2.063 0 014.125 0h1.407a2.063 2.063 0 114.125 0h1.406a2.063 2.063 0 114.125 0H25a3.47 3.47 0 00-1.709-2.988zm-12.776-1.9a.7.7 0 11-.7.7.7.7 0 01.703-.698zm5.484 0a.7.7 0 11-.7.7.7.7 0 01.703-.698zm5.555 0a.7.7 0 11-.7.7.7.7 0 01.703-.698zM25 9.109v8.437a2.1 2.1 0 01-.5 1.357 3.544 3.544 0 00-1-1.013.7.7 0 00.091-.345V9.109a.7.7 0 00-.7-.7H9.109a.7.7 0 00-.7.7v8.437a.7.7 0 00.112.378 3.545 3.545 0 00-.981 1.026A2.1 2.1 0 017 17.546V9.109a2.112 2.112 0 012.109-2.11h13.782A2.112 2.112 0 0125 9.109zm0 0"/></symbol><symbol viewBox="0 0 16 14.8" id="heart" xmlns="http://www.w3.org/2000/svg"><path d="M11.6 0A4.521 4.521 0 0116 4.8c0 5.6-6 8.8-8 10-2-1.2-8-4.4-8-10A4.54 4.54 0 014.4 0 5.293 5.293 0 018 1.6 5.293 5.293 0 0111.6 0zM8.747 12.483a21.562 21.562 0 001.936-1.361C13.068 9.222 14.4 7.154 14.4 4.8a2.932 2.932 0 00-2.8-3.2 3.686 3.686 0 00-2.469 1.131L8 3.862 6.869 2.731A3.686 3.686 0 004.4 1.6a2.95 2.95 0 00-2.8 3.2c0 2.355 1.333 4.426 3.716 6.322a21.527 21.527 0 001.937 1.36c.239.151.476.3.747.458.271-.162.508-.306.747-.457z"/></symbol><symbol viewBox="0 0 24 24" id="home" xmlns="http://www.w3.org/2000/svg"><path class="aza" fill="none" d="M0 0h24v24H0z"/><path class="azb" d="M21.644 11.948L20.298 10.6l-7.406-7.4a.673.673 0 00-.952 0l-7.405 7.4-1.343 1.349a.673.673 0 00.952.952l.2-.2v8.473a.673.673 0 00.673.673h14.805a.673.673 0 00.673-.673V12.7l.2.2a.673.673 0 00.952-.952zM14.436 20.5h-4.044v-5.383h4.039zm4.713 0h-3.367v-6.056a.673.673 0 00-.673-.673H9.723a.673.673 0 00-.673.673V20.5H5.684v-9.144l6.732-6.732 6.732 6.732z" fill="#fff"/></symbol><symbol viewBox="0 0 15.896 15.896" id="instagram" xmlns="http://www.w3.org/2000/svg"><defs><style>.baa{fill:#fff}</style></defs><path class="baa" d="M13.568 0H2.329A2.331 2.331 0 000 2.329v11.239A2.331 2.331 0 002.329 15.9h11.239a2.331 2.331 0 002.332-2.332V2.329A2.331 2.331 0 0013.568 0zM7.979 12.109a4.191 4.191 0 114.191-4.191 4.2 4.2 0 01-4.191 4.191zm4.657-7.451a1.4 1.4 0 111.4-1.4 1.4 1.4 0 01-1.4 1.399zm0 0"/><path class="baa" d="M12.637 2.794a.466.466 0 10.466.466.466.466 0 00-.466-.466zm0 0M7.979 4.657a3.26 3.26 0 103.26 3.26 3.264 3.264 0 00-3.26-3.26zm0 0"/></symbol><symbol viewBox="0 0 30 30" id="issue" xmlns="http://www.w3.org/2000/svg"><path fill="none" d="M0 0h30v30H0z"/><path d="M15 18.563a.925.925 0 000 1.85.925.925 0 000-1.85z"/><path d="M23.562 21.841a3.159 3.159 0 00.007-3.2L17.774 8.61a3.193 3.193 0 00-5.543 0L6.43 18.652a3.2 3.2 0 002.775 4.8h11.574a3.187 3.187 0 002.783-1.611zm-1.262-.723a1.749 1.749 0 01-1.528.884H9.2a1.725 1.725 0 01-1.51-.866 1.751 1.751 0 010-1.765l5.8-10.042a1.742 1.742 0 013.027 0l5.8 10.042a1.728 1.728 0 01-.017 1.747z"/><path d="M14.77 12.067a1.006 1.006 0 00-.714 1.01c.022.292.041.588.063.881l.189 3.319a.678.678 0 00.692.651.692.692 0 00.692-.673c0-.229 0-.44.022-.673l.126-2.142c.022-.463.063-.925.085-1.388a1.143 1.143 0 00-.085-.463.927.927 0 00-1.07-.522z"/></symbol><symbol viewBox="0 0 24 24" id="language" xmlns="http://www.w3.org/2000/svg"><path d="M12 20a8 8 0 118-8 8 8 0 01-8 8zm-1.832-1.866A14.32 14.32 0 018.822 12.8H5.65a6.406 6.406 0 004.518 5.334zm.256-5.334A12.732 12.732 0 0012 18.2a12.724 12.724 0 001.576-5.4h-3.152zm7.926 0h-3.172a14.32 14.32 0 01-1.346 5.334A6.406 6.406 0 0018.35 12.8zm-12.7-1.6h3.172a14.32 14.32 0 011.346-5.334A6.406 6.406 0 005.65 11.2zm4.775 0h3.15A12.724 12.724 0 0012 5.8a12.724 12.724 0 00-1.576 5.4zm3.407-5.334a14.32 14.32 0 011.346 5.334h3.172a6.406 6.406 0 00-4.518-5.334z"/></symbol><symbol viewBox="0 0 16 16" id="lesson-view" xmlns="http://www.w3.org/2000/svg"><path class="bda" d="M14.286 0H1.714A1.714 1.714 0 000 1.714v12.572A1.714 1.714 0 001.714 16h12.572A1.714 1.714 0 0016 14.286V1.714A1.714 1.714 0 0014.286 0zm.571 14.286a.571.571 0 01-.571.571H1.714a.571.571 0 01-.571-.571V1.714a.571.571 0 01.571-.571h12.572a.571.571 0 01.571.571v12.572z"/><path class="bda" d="M5.065 3.441H3.431a.545.545 0 000 1.089h1.634a.545.545 0 100-1.089zM12.511 3.441h-4.9a.545.545 0 100 1.089h4.9a.545.545 0 000-1.089zM5.065 7.455H3.431a.545.545 0 100 1.089h1.634a.545.545 0 100-1.089zM12.511 7.455h-4.9a.545.545 0 100 1.089h4.9a.545.545 0 100-1.089zM5.065 11.47H3.431a.545.545 0 000 1.089h1.634a.545.545 0 100-1.089zM12.511 11.47h-4.9a.545.545 0 100 1.089h4.9a.545.545 0 100-1.089z"/></symbol><symbol viewBox="0 0 30 30" id="lessons" xmlns="http://www.w3.org/2000/svg"><path fill="none" class="beb" d="M0 0h30v30H0z"/><path d="M10.2 9.313h9.6v1.382h-9.6zm0 3.039h9.6v1.382h-9.6zm0 3.039h9.6v1.382h-9.6zm0 3.039h9.6v1.383h-9.6z"/><path d="M6 24.2V5h18v19.2zM23 6H7v17.2h16z"/></symbol><symbol viewBox="0 0 30 30" id="lessons-plan" xmlns="http://www.w3.org/2000/svg"><path fill="none" d="M0 0h30v30H0z"/><path d="M15.43 21.813a3.406 3.406 0 113.406-3.406 3.406 3.406 0 01-3.406 3.406zm0-5.892a2.486 2.486 0 102.486 2.486 2.486 2.486 0 00-2.486-2.486zm-.748 3.4v-2.327h.831v1.5h1.5v.831z"/><path d="M22.403 8.025h-1.555V6.787A.874.874 0 0019.882 6h-1.328a.775.775 0 00-.858.787v1.238h-5.4V6.787A.775.775 0 0011.445 6h-1.327a.874.874 0 00-.967.787v1.238h-1.44a1.665 1.665 0 00-1.715 1.617v13.115a1.831 1.831 0 001.71 1.912h14.583a1.831 1.831 0 001.707-1.909v-13a1.665 1.665 0 00-1.593-1.735zM18.554 6.9h1.395v2.474h-1.395zm-8.436 0h1.278v2.474h-1.278zm12.978 15.86a.935.935 0 01-.81 1.012H7.711a.935.935 0 01-.81-1.012V13.2h16.195v9.56zm0-13v2.54H6.901V9.757a.765.765 0 01.81-.832h1.44v.495a.926.926 0 00.967.855h1.327a.832.832 0 00.855-.809v-.541h5.4v.495a.832.832 0 00.809.855h1.373a.926.926 0 00.967-.855v-.495h1.44a.765.765 0 01.81.832z"/></symbol><symbol viewBox="0 0 11.552 13.944" id="location" xmlns="http://www.w3.org/2000/svg"><path d="M5.776 12.129l3.177-3.177a4.492 4.492 0 10-6.354 0zm0 1.815L1.692 9.86a5.776 5.776 0 118.168 0zm0-6.885a1.284 1.284 0 10-1.284-1.283A1.284 1.284 0 005.776 7.06zm0 1.284a2.567 2.567 0 112.567-2.567 2.567 2.567 0 01-2.567 2.567z"/></symbol><symbol viewBox="0 0 289.658 289.658" id="lock" xmlns="http://www.w3.org/2000/svg"><path d="M245.758 128.041h-14.217V86.712C231.541 38.899 192.642 0 144.829 0S58.117 38.899 58.117 86.712v41.329H43.9c-8.285 0-15.001 6.716-15.001 15.001v131.613c0 8.285 6.716 15.002 15.001 15.002h201.858c8.285 0 15.002-6.716 15.002-15.002V143.043c0-8.285-6.717-15.002-15.002-15.002zM94.537 86.712c0-27.731 22.561-50.292 50.292-50.292s50.292 22.561 50.292 50.292v41.329H94.537V86.712zm66.64 127.127v26.904c0 9.029-7.319 16.348-16.348 16.348s-16.348-7.319-16.348-16.348v-26.904c-6.081-4.824-9.986-12.272-9.986-20.638 0-14.544 11.79-26.335 26.334-26.335s26.334 11.791 26.334 26.335c0 8.366-3.905 15.815-9.986 20.638z"/></symbol><symbol viewBox="0 0 24 24" id="logout" xmlns="http://www.w3.org/2000/svg"><path fill="none" d="M0 0h24v24H0z"/><path fill="#fff" d="M12.967 20.272H5.492a.831.831 0 01-.831-.831V4.492a.831.831 0 01.831-.831h7.475a.831.831 0 000-1.661H5.492A2.5 2.5 0 003 4.492v14.95a2.5 2.5 0 002.492 2.492h7.475a.831.831 0 100-1.661z"/><path fill="#fff" d="M22.753 11.375l-5.05-4.983a.83.83 0 10-1.166 1.183l3.609 3.561h-9.67a.831.831 0 000 1.661h9.67l-3.609 3.561a.83.83 0 101.166 1.183l5.05-4.983a.83.83 0 000-1.183z"/></symbol><symbol viewBox="0 0 24 24" id="message" xmlns="http://www.w3.org/2000/svg"><path fill="none" d="M0 0h24v24H0z"/><path d="M1 15.638a.645.645 0 001.019.525l3.544-2.528a1.734 1.734 0 011.012-.324h7.794a2.491 2.491 0 002.488-2.488V2.645A.645.645 0 0016.212 2H3.488A2.491 2.491 0 001 4.488zm1.289-11.15a1.2 1.2 0 011.2-1.2h12.08v7.534a1.2 1.2 0 01-1.2 1.2H6.575a3.016 3.016 0 00-1.761.564l-2.525 1.8z"/><path d="M23 9.487a2.491 2.491 0 00-2.488-2.488H18.79a.645.645 0 000 1.289h1.722a1.2 1.2 0 011.2 1.2v9.9l-2.525-1.8a3.015 3.015 0 00-1.761-.564H9.632a1.2 1.2 0 01-1.2-1.2v-.577a.645.645 0 00-1.289 0v.577a2.491 2.491 0 002.488 2.488h7.794a1.734 1.734 0 011.012.324l3.544 2.528A.645.645 0 0023 20.639V9.489zM5.635 6.8h7.447a.645.645 0 100-1.289H5.635a.645.645 0 100 1.289zM5.635 9.808h7.447a.645.645 0 000-1.289H5.635a.645.645 0 000 1.289z"/></symbol><symbol viewBox="0 0 24 24" id="notification" xmlns="http://www.w3.org/2000/svg"><path fill="none" d="M0 0h24v24H0z"/><path fill="#fff" d="M21.714 17.72c-1.751-1.528-3.371-3.683-3.371-9.064a5.603 5.603 0 10-11.206 0c0 5.386-1.62 7.539-3.372 9.065A2.246 2.246 0 003 19.404a.64.64 0 00.637.643h6.049a3.115 3.115 0 006.109 0h6.048a.64.64 0 00.637-.643 2.234 2.234 0 00-.766-1.684zm-8.974 3.546a1.849 1.849 0 01-1.732-1.219h3.464a1.849 1.849 0 01-1.732 1.219zm-8.214-2.505a.942.942 0 01.074-.072c2.672-2.327 3.812-5.329 3.812-10.037a4.328 4.328 0 118.656 0c0 4.7 1.14 7.706 3.813 10.038a.95.95 0 01.074.072z"/></symbol><symbol viewBox="0 0 30 30" id="orders" xmlns="http://www.w3.org/2000/svg"><path fill="none" d="M0 0h30v30H0z"/><path d="M7.008 6.01H18.12v4.647h4.243v2.222h1.01v-3.03L18.98 5H6v20.2h12.524v-1.01H7.008zM19.13 7.02l2.424 2.626H19.13z"/><path d="M25.925 15.68l-1.918-1.918a.258.258 0 00-.365 0l-1.635 1.627-5.049 5.037a.264.264 0 00-.078.114l-.973 2.905a.261.261 0 00.163.329.252.252 0 00.163 0l2.91-.973a.264.264 0 00.114-.078l5.039-5.048 1.626-1.631a.258.258 0 00.003-.364zm-9.018 7.098l.606-1.818 1.01 1.01zm2.222-1.212l-1.212-1.01 4.445-4.243 1.01 1.212zm4.849-4.647l-1.211-1.01 1.01-1.212 1.212 1.212zM8.827 10.859h7.071v1.01H8.827zm0 2.222h8.889v1.01H8.827zm0 2.222h8.889v1.01H8.827zm0 2.222h8.889v1.01H8.827zm0 2.222h4.084v1.012H8.827z"/></symbol><symbol viewBox="0 0 15.579 15.612" id="phone" xmlns="http://www.w3.org/2000/svg"><defs><style>.bma{fill:#fff}</style></defs><path class="bma" d="M15.17 11.457l-2.178-2.178a1.449 1.449 0 00-2.412.545 1.483 1.483 0 01-1.712.934 6.718 6.718 0 01-4.046-4.047A1.41 1.41 0 015.756 5a1.449 1.449 0 00.545-2.412L4.122.409a1.554 1.554 0 00-2.1 0L.542 1.887c-1.478 1.556.156 5.68 3.813 9.337s7.781 5.369 9.337 3.813l1.478-1.478a1.554 1.554 0 000-2.102z"/></symbol><symbol viewBox="0 0 14 16.899" id="pin" xmlns="http://www.w3.org/2000/svg"><defs><style>.bna{fill:#fff}</style></defs><path class="bna" d="M11.95 11.95L7 16.9l-4.95-4.95a7 7 0 119.9 0zM7 10.111A3.111 3.111 0 103.889 7 3.111 3.111 0 007 10.111zm0-1.556A1.556 1.556 0 118.556 7 1.556 1.556 0 017 8.556z"/></symbol><symbol viewBox="0 0 36.333 36.333" id="planning" xmlns="http://www.w3.org/2000/svg"><defs><style>.boa{fill:#fff}</style></defs><path class="boa" d="M14.405 26.682a.71.71 0 11-.71-.71.71.71 0 01.71.71zm0 0M32.075 27.108h-3.548V23.56a.71.71 0 10-1.419 0v4.258a.71.71 0 00.71.71h4.258a.71.71 0 000-1.419zm0 0M4.968 14.618h4.47a.71.71 0 100-1.419h-4.47a.71.71 0 100 1.419zm0 0M18.166 13.199h-4.47a.71.71 0 100 1.419h4.471a.71.71 0 000-1.419zm0 0M4.968 18.876h4.47a.71.71 0 100-1.419h-4.47a.71.71 0 100 1.419zm0 0M10.858 25.972h-5.89a.71.71 0 000 1.419h5.89a.71.71 0 000-1.419zm0 0M18.166 17.457h-4.47a.71.71 0 100 1.419h4.471a.71.71 0 100-1.419zm0 0M4.968 23.134h4.47a.71.71 0 100-1.419h-4.47a.71.71 0 100 1.419zm0 0M18.166 21.715h-4.47a.71.71 0 100 1.419h4.471a.71.71 0 100-1.419zm0 0M22.425 14.618h4.258a.71.71 0 000-1.419h-4.258a.71.71 0 100 1.419zm0 0"/><path class="boa" d="M31.649 20.213V4.967a2.131 2.131 0 00-2.129-2.129h-2.129v-.71a2.129 2.129 0 10-4.258 0v.71h-5.89v-.71a2.129 2.129 0 10-4.258 0v.71H7.1v-.71a2.129 2.129 0 00-4.258 0v.71h-.71A2.131 2.131 0 000 4.967V28.1a2.131 2.131 0 002.129 2.13h17.522a8.515 8.515 0 1012-10.017zm-7.1-18.084a.71.71 0 011.419 0v2.838a.71.71 0 01-1.419 0zm-10.148 0a.71.71 0 111.419 0v2.838a.71.71 0 11-1.419 0zm-10.148 0a.71.71 0 111.419 0v2.838a.71.71 0 01-1.419 0zM2.129 4.258h.71v.71a2.129 2.129 0 104.258 0v-.71h5.89v.71a2.129 2.129 0 104.258 0v-.71h5.89v.71a2.129 2.129 0 104.258 0v-.71h2.127a.71.71 0 01.71.71v3.76H1.419V4.967a.71.71 0 01.71-.709zM1.419 28.1V10.148H30.23v9.5a8.521 8.521 0 00-10.93 8.169 8.616 8.616 0 00.058.993H2.129a.71.71 0 01-.71-.71zm26.4 6.812a7.1 7.1 0 117.1-7.1 7.12 7.12 0 01-7.102 7.102zm0 0"/></symbol><symbol viewBox="0 0 455 455" id="play" xmlns="http://www.w3.org/2000/svg"><path d="M227.5 0C101.855 0 0 101.855 0 227.5S101.855 455 227.5 455 455 353.145 455 227.5 353.145 0 227.5 0zm-61.438 321.575v-188.15L328.938 227.5l-162.876 94.075z"/></symbol><symbol viewBox="0 0 512 512" id="plus" xmlns="http://www.w3.org/2000/svg"><path d="M256 0C114.833 0 0 114.833 0 256s114.833 256 256 256 256-114.853 256-256S397.167 0 256 0zm0 472.341c-119.275 0-216.341-97.046-216.341-216.341S136.725 39.659 256 39.659 472.341 136.705 472.341 256 375.295 472.341 256 472.341z"/><path d="M355.148 234.386H275.83v-79.318c0-10.946-8.864-19.83-19.83-19.83s-19.83 8.884-19.83 19.83v79.318h-79.318c-10.966 0-19.83 8.884-19.83 19.83s8.864 19.83 19.83 19.83h79.318v79.318c0 10.946 8.864 19.83 19.83 19.83s19.83-8.884 19.83-19.83v-79.318h79.318c10.966 0 19.83-8.884 19.83-19.83s-8.864-19.83-19.83-19.83z"/></symbol><symbol viewBox="0 0 24 24" id="price-tag" xmlns="http://www.w3.org/2000/svg"><path d="M11.297 4l7.615 1.089L20 12.7l-7.071 7.071a.769.769 0 01-1.088 0L4.225 12.16a.769.769 0 010-1.088zm.544 1.632l-5.984 5.984 6.529 6.527 5.983-5.983-.815-5.712-5.713-.816zm1.631 4.9a1.539 1.539 0 112.177 0 1.539 1.539 0 01-2.177-.004z"/></symbol><symbol viewBox="0 0 15.402 14.648" id="rating" xmlns="http://www.w3.org/2000/svg"><defs><style>.bsa{fill:#f90}</style></defs><path class="bsa" d="M7.701 11.984l-4.759 2.664L4.005 9.3l-4-3.7 5.408-.647L7.701 0l2.285 4.953 5.416.642-4 3.7 1.063 5.35z"/></symbol><symbol viewBox="0 0 228.027 244.122" id="report-issue" xmlns="http://www.w3.org/2000/svg"><g transform="translate(-.001)" data-name="file (1)"><path data-name="Path 5" d="M174.512 239.905a53.516 53.516 0 1153.516-53.516 53.577 53.577 0 01-53.516 53.516zm0-98.8a45.282 45.282 0 1045.284 45.285 45.336 45.336 0 00-45.284-45.283z"/><path data-name="Path 6" d="M174.883 210.59a3.887 3.887 0 01-3.886-3.886v-31.086a3.886 3.886 0 017.772 0v31.086a3.887 3.887 0 01-3.886 3.886z"/><ellipse data-name="Ellipse 7" cx="4" cy="3.5" rx="4" ry="3.5" transform="translate(170.997 156)"/><path data-name="Path 7" d="M110.436 244.123H29.062A29.1 29.1 0 010 215.061V63.937a29.1 29.1 0 0129.062-29.062h23.25a5.813 5.813 0 010 11.625h-23.25a17.459 17.459 0 00-17.437 17.437v151.124a17.459 17.459 0 0017.437 17.437h81.374a5.813 5.813 0 110 11.625z"/><path data-name="Path 8" d="M133.687 69.749h-69.75A17.459 17.459 0 0146.5 52.312v-23.25a5.815 5.815 0 015.812-5.812h18.019a29.069 29.069 0 0156.962 0h18.019a5.815 5.815 0 015.812 5.812v23.25a17.459 17.459 0 01-17.437 17.437zM58.125 34.875v17.437a5.822 5.822 0 005.812 5.812h69.75a5.822 5.822 0 005.813-5.812V34.875h-17.438a5.815 5.815 0 01-5.812-5.812 17.438 17.438 0 00-34.875 0 5.815 5.815 0 01-5.812 5.812z"/><path data-name="Path 9" d="M156.936 104.624H40.687a5.813 5.813 0 010-11.625h116.249a5.813 5.813 0 110 11.625z"/><path data-name="Path 10" d="M122.062 139.499H40.687a5.813 5.813 0 010-11.625h81.375a5.813 5.813 0 010 11.625z"/><path data-name="Path 11" d="M98.812 174.373H40.687a5.813 5.813 0 010-11.625h58.125a5.813 5.813 0 010 11.625z"/><path data-name="Path 12" d="M191.811 104.624a5.815 5.815 0 01-5.812-5.812V63.937A17.459 17.459 0 00168.561 46.5h-23.25a5.813 5.813 0 110-11.625h23.25a29.1 29.1 0 0129.062 29.062v34.875a5.815 5.815 0 01-5.812 5.812z"/></g></symbol><symbol viewBox="0 0 15 14.25" id="reschedule" xmlns="http://www.w3.org/2000/svg"><path d="M7.875 0a7 7 0 00-6.15 3.6L0 1.875V6.75h4.875l-2.1-2.1A5.655 5.655 0 112.55 9H.975a7.136 7.136 0 106.9-9zM6.75 3.75v3.825l3.525 2.1.6-.975-3-1.8V3.75z"/></symbol><symbol viewBox="0 0 234.872 244.122" id="resolve-issue" xmlns="http://www.w3.org/2000/svg"><g data-name="file (1)"><path data-name="Path 7" d="M110.436 244.123H29.062A29.1 29.1 0 010 215.061V63.937a29.1 29.1 0 0129.062-29.062h23.25a5.813 5.813 0 010 11.625h-23.25a17.459 17.459 0 00-17.437 17.437v151.124a17.459 17.459 0 0017.437 17.437h81.374a5.813 5.813 0 110 11.625z"/><path data-name="Path 8" d="M133.687 69.749h-69.75A17.459 17.459 0 0146.5 52.312v-23.25a5.815 5.815 0 015.812-5.812h18.019a29.069 29.069 0 0156.962 0h18.019a5.815 5.815 0 015.812 5.812v23.25a17.459 17.459 0 01-17.437 17.437zM58.125 34.875v17.437a5.822 5.822 0 005.812 5.812h69.75a5.822 5.822 0 005.813-5.812V34.875h-17.438a5.815 5.815 0 01-5.812-5.812 17.438 17.438 0 00-34.875 0 5.815 5.815 0 01-5.812 5.812z"/><path data-name="Path 9" d="M156.936 104.624H40.687a5.813 5.813 0 010-11.625h116.249a5.813 5.813 0 110 11.625z"/><path data-name="Path 10" d="M122.062 139.499H40.687a5.813 5.813 0 010-11.625h81.375a5.813 5.813 0 010 11.625z"/><path data-name="Path 11" d="M98.812 174.373H40.687a5.813 5.813 0 010-11.625h58.125a5.813 5.813 0 010 11.625z"/><path data-name="Path 12" d="M191.811 104.624a5.815 5.815 0 01-5.812-5.812V63.937A17.459 17.459 0 00168.561 46.5h-23.25a5.813 5.813 0 110-11.625h23.25a29.1 29.1 0 0129.062 29.062v34.875a5.815 5.815 0 01-5.812 5.812z"/><g data-name="Group 19"><g data-name="Group 18"><path data-name="Path 13" d="M181.374 133.686a53.5 53.5 0 1053.5 53.5 53.5 53.5 0 00-53.5-53.5zm0 99.355a45.856 45.856 0 1145.855-45.855 45.856 45.856 0 01-45.855 45.855z"/></g></g><g data-name="Group 21"><g data-name="Group 20"><path data-name="Path 14" d="M210.73 165.377a3.821 3.821 0 00-5.309 0l-35.512 35.512-12.584-12.584a3.823 3.823 0 10-5.5 5.31q.046.048.094.094l15.286 15.286a3.821 3.821 0 005.4 0l38.214-38.214a3.821 3.821 0 00-.089-5.404z"/></g></g></g></symbol><symbol viewBox="0 0 24 24" id="search" xmlns="http://www.w3.org/2000/svg"><path d="M18.031 16.617l4.283 4.283-1.414 1.414-4.282-4.283a9 9 0 111.414-1.414zm-2.006-.742a7 7 0 10-.15.15l.15-.15z"/></symbol><symbol viewBox="0 0 30 30" id="settings" xmlns="http://www.w3.org/2000/svg"><path fill="none" d="M0 0h30v30H0z"/><path d="M23.977 12.9l-1.4-.237a7.928 7.928 0 00-.564-1.362l.827-1.158a1.232 1.232 0 00-.14-1.591l-1.243-1.245a1.227 1.227 0 00-.873-.363 1.214 1.214 0 00-.714.23L18.708 8a7.847 7.847 0 00-1.408-.581l-.234-1.388A1.234 1.234 0 0015.842 5h-1.759a1.234 1.234 0 00-1.22 1.032l-.242 1.421a7.728 7.728 0 00-1.358.572L10.114 7.2a1.234 1.234 0 00-1.592.134L7.274 8.576a1.237 1.237 0 00-.134 1.592l.836 1.174a7.732 7.732 0 00-.556 1.366l-1.388.234A1.234 1.234 0 005 14.162v1.759a1.234 1.234 0 001.032 1.22l1.42.242a7.736 7.736 0 00.572 1.358L7.2 19.886a1.232 1.232 0 00.134 1.592l1.246 1.245a1.228 1.228 0 001.588.134l1.174-.836a7.9 7.9 0 001.321.543l.233 1.4A1.234 1.234 0 0014.116 25h1.763a1.234 1.234 0 001.22-1.032l.238-1.4A7.92 7.92 0 0018.7 22l1.158.827a1.227 1.227 0 00.719.23 1.226 1.226 0 00.873-.363l1.245-1.245a1.237 1.237 0 00.134-1.592L22 18.7a7.872 7.872 0 00.564-1.362l1.4-.234A1.234 1.234 0 0025 15.879V14.12a1.219 1.219 0 00-1.023-1.22zm-.1 2.979a.108.108 0 01-.092.109l-1.755.292a.561.561 0 00-.451.414 6.69 6.69 0 01-.727 1.751.565.565 0 00.025.614l1.032 1.454a.114.114 0 01-.013.142L20.654 21.9a.105.105 0 01-.079.033.1.1 0 01-.063-.021l-1.45-1.032a.565.565 0 00-.614-.025 6.688 6.688 0 01-1.751.727.555.555 0 00-.413.451l-.3 1.755a.108.108 0 01-.109.092h-1.754a.108.108 0 01-.109-.092l-.292-1.755a.561.561 0 00-.414-.451 6.946 6.946 0 01-1.713-.7.578.578 0 00-.284-.075.55.55 0 00-.326.105l-1.462 1.04a.124.124 0 01-.063.021.112.112 0 01-.079-.033l-1.246-1.247a.113.113 0 01-.012-.142l1.027-1.441a.572.572 0 00.025-.618 6.625 6.625 0 01-.735-1.747.572.572 0 00-.451-.414l-1.767-.3a.108.108 0 01-.092-.109v-1.76a.108.108 0 01.092-.11l1.742-.292a.565.565 0 00.455-.418 6.678 6.678 0 01.715-1.753.558.558 0 00-.032-.61L8.063 9.517a.114.114 0 01.012-.142L9.32 8.129A.107.107 0 019.4 8.1a.1.1 0 01.063.021L10.9 9.145a.572.572 0 00.618.025 6.626 6.626 0 011.747-.735.572.572 0 00.414-.451l.3-1.767a.108.108 0 01.109-.092h1.759a.108.108 0 01.109.092l.292 1.742a.565.565 0 00.418.455 6.78 6.78 0 011.792.735.565.565 0 00.614-.025l1.441-1.036a.124.124 0 01.063-.021.112.112 0 01.079.033l1.244 1.245a.113.113 0 01.013.142l-1.032 1.45a.565.565 0 00-.025.614 6.689 6.689 0 01.727 1.751.555.555 0 00.45.414l1.755.3a.108.108 0 01.092.109v1.755z"/><path d="M15.002 10.682a4.316 4.316 0 104.316 4.316 4.316 4.316 0 00-4.316-4.316zm0 7.5a3.188 3.188 0 113.188-3.188 3.188 3.188 0 01-3.188 3.188z"/></symbol><symbol viewBox="0 0 227.216 227.216" id="share" xmlns="http://www.w3.org/2000/svg"><path d="M175.897 141.476c-13.249 0-25.11 6.044-32.98 15.518l-51.194-29.066a42.671 42.671 0 002.467-14.317 42.67 42.67 0 00-2.467-14.316l51.19-29.073c7.869 9.477 19.732 15.523 32.982 15.523 23.634 0 42.862-19.235 42.862-42.879C218.759 19.229 199.531 0 175.897 0 152.26 0 133.03 19.229 133.03 42.865c0 5.02.874 9.838 2.467 14.319L84.304 86.258c-7.869-9.472-19.729-15.514-32.975-15.514-23.64 0-42.873 19.229-42.873 42.866 0 23.636 19.233 42.865 42.873 42.865 13.246 0 25.105-6.042 32.974-15.513l51.194 29.067a42.67 42.67 0 00-2.468 14.321c0 23.636 19.23 42.865 42.867 42.865 23.634 0 42.862-19.23 42.862-42.865.001-23.64-19.227-42.874-42.861-42.874zm0-126.476c15.363 0 27.862 12.5 27.862 27.865 0 15.373-12.499 27.879-27.862 27.879-15.366 0-27.867-12.506-27.867-27.879C148.03 27.5 160.531 15 175.897 15zM51.33 141.476c-15.369 0-27.873-12.501-27.873-27.865 0-15.366 12.504-27.866 27.873-27.866 15.363 0 27.861 12.5 27.861 27.866 0 15.364-12.499 27.865-27.861 27.865zm124.567 70.74c-15.366 0-27.867-12.501-27.867-27.865 0-15.37 12.501-27.875 27.867-27.875 15.363 0 27.862 12.505 27.862 27.875 0 15.364-12.499 27.865-27.862 27.865z"/></symbol><symbol viewBox="0 0 40 40" id="stats" xmlns="http://www.w3.org/2000/svg"><path d="M23.968 22.592h-2.222a1.111 1.111 0 000 2.222h1.111a1.111 1.111 0 102.222 0v-.2a3.325 3.325 0 00-1.111-6.462 1.111 1.111 0 010-2.222h2.222a1.111 1.111 0 000-2.222h-1.111a1.111 1.111 0 10-2.222 0v.2a3.325 3.325 0 001.111 6.462 1.111 1.111 0 010 2.222z"/><path d="M36.582 29.328a2.485 2.485 0 00.085-.474c0-2.88-2.174-6.6-2.746-7.532-.027-6.266-1.14-10.833-5.718-12.4.209-.653.586-1.522.936-2.324a12.477 12.477 0 001.307-3.955A2.511 2.511 0 0027.8 0a1.9 1.9 0 00-1.93 1.075l-.038-.044A2.7 2.7 0 0023.561 0c-1.526 0-2.516 1.329-3 2.418a3.413 3.413 0 00-2.106.723 1.763 1.763 0 00-.571 1.322 6.49 6.49 0 001.281 2.924 15.524 15.524 0 01.89 1.567c-4.516 1.586-5.62 6.136-5.646 12.368a26.852 26.852 0 00-1.52 2.906 18.389 18.389 0 00-3.2.576 2.5 2.5 0 00-1.905-1.764L1 21.683a.833.833 0 00-1 .817v13.333a.833.833 0 00.833.833h5.222a2.486 2.486 0 002.282-1.574C10.2 35.982 18.832 40 22.5 40c3.232 0 9.885-3.271 14.287-5.435 1.149-.565 2.1-1.032 2.715-1.3A.834.834 0 0040 32.5c0-1.585-1.353-2.769-3.418-3.172zM8.119 25.61l-1.24 8.675a.837.837 0 01-.824.715H1.667V23.516l5.79 1.158a.834.834 0 01.662.936zM19.593 4.363a2.653 2.653 0 011.489-.278.813.813 0 00.855-.588c.147-.474.76-1.83 1.624-1.83a1.083 1.083 0 011.019.469 1.781 1.781 0 001.4.741 1.4 1.4 0 001.344-.977 1.231 1.231 0 01.082-.173.806.806 0 01.391-.058.86.86 0 01.982.981 13.354 13.354 0 01-1.167 3.288 25.332 25.332 0 00-1.026 2.592 15.038 15.038 0 00-4.9.008 13.411 13.411 0 00-1.106-2.031 5.406 5.406 0 01-.987-2.144zm-3.647 17.65a.836.836 0 00.133-.451C16.078 13.026 18.195 10 24.167 10s8.088 3.026 8.088 11.563a.837.837 0 00.133.452c.026.04 2.612 4.085 2.612 6.839a.854.854 0 01-.062.315 34.555 34.555 0 00-6.648 1.4c-.227-2.392-3.291-3.238-6.458-3.881a14.309 14.309 0 01-3.56-1.313 9.986 9.986 0 00-3.542-1.154 24.566 24.566 0 011.216-2.208zM36.051 33.07c-4 1.969-10.706 5.264-13.551 5.264-3.031 0-10.991-3.549-13.8-4.916h-.01l.981-6.867a16.009 16.009 0 014.5-.714 7.519 7.519 0 013.382 1.038 15.908 15.908 0 003.947 1.442c3.621.734 5.166 1.487 5.166 2.516a.493.493 0 01-.221.447c-.527.4-2.6 1.062-10.376-1.246a.833.833 0 10-.474 1.6 33.781 33.781 0 008.853 1.7 5 5 0 002.993-.722c.056-.041.1-.092.147-.137a.8.8 0 00.155-.015A39.2 39.2 0 0135 30.833c1.359 0 2.789.413 3.21 1.188-.581.274-1.318.636-2.159 1.049z"/></symbol><symbol viewBox="0 0 32 43.323" id="stats_1" xmlns="http://www.w3.org/2000/svg"><path class="caa" d="M4.937 15.887a.709.709 0 01.708-.708h16.876a.708.708 0 010 1.416H5.645a.708.708 0 01-.708-.708zm.708 6.846h16.876a.708.708 0 000-1.416H5.645a.708.708 0 100 1.416zm7.3 4.719h-7.3a.708.708 0 100 1.416h7.3a.708.708 0 100-1.416zm-.944 6.138H5.646a.708.708 0 100 1.416h6.352a.708.708 0 100-1.416zm20 .824a8.895 8.895 0 01-14.877 6.6H.708A.71.71 0 010 40.306V7.183a.708.708 0 01.708-.708h5.98V4.529a.708.708 0 01.708-.708h2.9v-.035a3.787 3.787 0 017.573 0v.034h2.9a.709.709 0 01.708.708v1.946h5.979a.708.708 0 01.708.708V27.1A8.9 8.9 0 0132 34.413zM8.105 8.705h11.958V5.238h-3a.708.708 0 01-.687-.882 2.277 2.277 0 00.08-.57 2.371 2.371 0 10-4.662.573.707.707 0 01-.687.879h-3zM1.416 39.594h14.441A8.894 8.894 0 0126.749 26.3V7.889h-5.274v1.522a.709.709 0 01-.708.708H7.395a.709.709 0 01-.708-.708V7.889H1.415v31.7zm29.168-5.181a7.493 7.493 0 10-7.493 7.493 7.5 7.5 0 007.493-7.493zm-3.588-2.951l-4.337 4.159-2.934-2.346a.708.708 0 00-.885 1.106l3.419 2.736a.712.712 0 00.442.152.7.7 0 00.49-.2l4.784-4.585a.707.707 0 00-.978-1.022z"/></symbol><symbol viewBox="0 0 36 36.001" id="stats_2" xmlns="http://www.w3.org/2000/svg"><path class="cba" d="M34.364 18.151v-5.06a3.266 3.266 0 00-3.012-3.246l-4.7-8.207a3.238 3.238 0 00-4.442-1.2L6.097 9.819H3.273a3.276 3.276 0 00-3.276 3.273v19.636A3.276 3.276 0 003.273 36h27.818a3.276 3.276 0 003.273-3.273v-5.06a2.451 2.451 0 001.633-2.303v-4.909a2.451 2.451 0 00-1.633-2.304zm-11.33-16.3a1.583 1.583 0 011.215-.164 1.6 1.6 0 01.983.76l1.594 2.785a5.617 5.617 0 01-2.281.492 5.637 5.637 0 01-4.448-2.159zm-4.358 2.541a7.218 7.218 0 008.962 2.261l1.812 3.166H9.354zm14.051 28.336a1.638 1.638 0 01-1.636 1.636H3.273a1.638 1.638 0 01-1.636-1.636V13.092a1.638 1.638 0 011.636-1.636h27.818a1.638 1.638 0 011.636 1.636V18h-4.909a4.909 4.909 0 100 9.818h4.909zm1.636-7.364a.819.819 0 01-.818.818h-5.727a3.273 3.273 0 110-6.545h5.727a.819.819 0 01.818.818z"/><path d="M27.655 20.919a1.909 1.909 0 101.909 1.909 1.912 1.912 0 00-1.909-1.909z"/></symbol><symbol viewBox="0 0 30 30" id="students" xmlns="http://www.w3.org/2000/svg"><path fill="none" d="M0 0h30v30H0z"/><path d="M21.07 14.767h-1.957a2.922 2.922 0 00-.77.1 2.932 2.932 0 00-2.612-1.606H12.27a2.932 2.932 0 00-2.612 1.606 2.922 2.922 0 00-.77-.1H6.93A2.933 2.933 0 004 17.697v3.13a1.76 1.76 0 001.758 1.757h16.484A1.76 1.76 0 0024 20.826v-3.13a2.933 2.933 0 00-2.93-2.929zM9.34 16.194v5.218H5.758a.587.587 0 01-.586-.586v-3.13a1.76 1.76 0 011.758-1.758h1.957a1.753 1.753 0 01.46.061c-.004.065-.007.13-.007.195zm8.148 5.218h-6.976v-5.218a1.76 1.76 0 011.758-1.758h3.46a1.76 1.76 0 011.758 1.758zm5.34-.586a.587.587 0 01-.586.586H18.66v-5.218c0-.065 0-.13-.007-.194a1.754 1.754 0 01.46-.061h1.957a1.76 1.76 0 011.758 1.758z"/><path d="M7.908 9.229a2.6 2.6 0 102.6 2.6 2.606 2.606 0 00-2.6-2.6zm0 4.035a1.431 1.431 0 111.431-1.431 1.433 1.433 0 01-1.431 1.435zM14 6a3.478 3.478 0 103.478 3.478A3.482 3.482 0 0014 6zm0 5.784a2.306 2.306 0 112.306-2.306A2.309 2.309 0 0114 11.784zM20.094 9.229a2.6 2.6 0 102.6 2.6 2.606 2.606 0 00-2.6-2.6zm0 4.035a1.431 1.431 0 111.431-1.431 1.433 1.433 0 01-1.431 1.435z"/></symbol><symbol viewBox="0 0 60 60" id="tick" xmlns="http://www.w3.org/2000/svg"><defs><style>.cda{fill:#fff}</style></defs><path class="cda" d="M44.982 20.138a2.432 2.432 0 00-3.439-.091L26.015 34.774l-7.407-7.6a2.432 2.432 0 00-3.485 3.394l9.081 9.324a2.433 2.433 0 003.417.068l17.27-16.378a2.432 2.432 0 00.091-3.444z"/><path class="cda" d="M30 0a30 30 0 1030 30A30.034 30.034 0 0030 0zm0 55.135A25.135 25.135 0 1155.135 30 25.164 25.164 0 0130 55.135z"/></symbol><symbol viewBox="0 0 172.541 172.541" id="trash" xmlns="http://www.w3.org/2000/svg"><path d="M166.797 25.078h-43.643V0H49.388v25.078H5.744v15H20.55l10 132.463h111.443l10-132.463h14.805v-15zM64.388 15h43.766v10.078H64.388V15zm63.695 142.541H44.46L35.592 40.078H136.95l-8.867 117.463z"/><path d="M80.271 65.693h12v66.232h-12zM57.271 65.693h12v66.232h-12zM103.271 65.693h12v66.232h-12z"/></symbol><symbol viewBox="0 0 15.615 12.78" id="twitter" xmlns="http://www.w3.org/2000/svg"><defs><style>.cfa{fill:#fff}</style></defs><path class="cfa" d="M5.826 12.78a13.4 13.4 0 01-2.069-.164 9.712 9.712 0 01-2.831-1.03L0 11.08l1-.329c1.095-.36 1.761-.583 2.586-.933a3.44 3.44 0 01-1.767-2.049l-.233-.707.191.029a3.475 3.475 0 01-.435-.537A3.294 3.294 0 01.783 4.6l.044-.617.37.143a3.456 3.456 0 01-.335-.939 3.572 3.572 0 01.381-2.4l.321-.601L2 .7a7.926 7.926 0 005.13 2.895 3.071 3.071 0 01.186-1.632A3.055 3.055 0 018.558.539a3.73 3.73 0 012.165-.532 3.458 3.458 0 012.126.877 7.136 7.136 0 00.778-.26c.173-.064.364-.137.606-.224l.892-.3-.582 1.661.119-.008.953-.043-.563.769a1.512 1.512 0 00-.052.074c-.045.068-.1.153-.875 1.185a1.456 1.456 0 00-.272.948 8.965 8.965 0 01-.489 3.606 6.381 6.381 0 01-1.713 2.537 7.565 7.565 0 01-3.586 1.734 11.04 11.04 0 01-2.24.22zm0 0"/></symbol><symbol viewBox="0 0 72 72" id="unlock" xmlns="http://www.w3.org/2000/svg"><path d="M57.429 28.858H25.286V18.432a11.227 11.227 0 018.571-11.145 10.963 10.963 0 0112.857 10.785 3.572 3.572 0 107.143 0A17.98 17.98 0 0034.214.1c-9.285 1.075-16.071 9.344-16.071 18.691v10.067h-3.572A3.59 3.59 0 0011 32.453V68.4a3.854 3.854 0 003.571 3.6h42.858A3.591 3.591 0 0061 68.4V32.453a3.385 3.385 0 00-3.571-3.595zM39.571 52.945v4.674A3.385 3.385 0 0136 61.214a3.385 3.385 0 01-3.572-3.6v-4.669a7.424 7.424 0 01-3.571-6.112A7.086 7.086 0 0137.786 40a8.077 8.077 0 015.357 5.4 7.015 7.015 0 01-3.572 7.545z"/></symbol><symbol viewBox="0 0 492 492" id="up-arrow" xmlns="http://www.w3.org/2000/svg"><path d="M442.627 185.388L265.083 7.844C260.019 2.78 253.263 0 245.915 0c-7.204 0-13.956 2.78-19.02 7.844L49.347 185.388c-10.488 10.492-10.488 27.568 0 38.052l16.12 16.128c5.064 5.06 11.82 7.844 19.028 7.844 7.204 0 14.192-2.784 19.252-7.844l103.808-103.584v329.084c0 14.832 11.616 26.932 26.448 26.932h22.8c14.832 0 27.624-12.1 27.624-26.932V134.816l104.396 104.752c5.06 5.06 11.636 7.844 18.844 7.844s13.864-2.784 18.932-7.844l16.072-16.128c10.492-10.488 10.452-27.56-.044-38.052z"/></symbol><symbol viewBox="0 0 22 13.109" id="video-camera" xmlns="http://www.w3.org/2000/svg"><path d="M12.753 0H1.372A1.458 1.458 0 000 1.528v10.054a1.458 1.458 0 001.372 1.528h11.381a1.458 1.458 0 001.372-1.528V1.528A1.458 1.458 0 0012.753 0zm0 0M15.404 8.478l6.6 2.627V2.046l-6.6 2.627zm0 0"/></symbol><symbol viewBox="0 0 511.999 511.999" id="view" xmlns="http://www.w3.org/2000/svg"><path d="M508.745 246.041c-4.574-6.257-113.557-153.206-252.748-153.206S7.818 239.784 3.249 246.035a16.896 16.896 0 000 19.923c4.569 6.257 113.557 153.206 252.748 153.206s248.174-146.95 252.748-153.201a16.875 16.875 0 000-19.922zM255.997 385.406c-102.529 0-191.33-97.533-217.617-129.418 26.253-31.913 114.868-129.395 217.617-129.395 102.524 0 191.319 97.516 217.617 129.418-26.253 31.912-114.868 129.395-217.617 129.395z"/><path d="M255.997 154.725c-55.842 0-101.275 45.433-101.275 101.275s45.433 101.275 101.275 101.275S357.272 311.842 357.272 256s-45.433-101.275-101.275-101.275zm0 168.791c-37.23 0-67.516-30.287-67.516-67.516s30.287-67.516 67.516-67.516 67.516 30.287 67.516 67.516-30.286 67.516-67.516 67.516z"/></symbol><symbol viewBox="0 0 234.995 244.122" id="view-report" xmlns="http://www.w3.org/2000/svg"><path data-name="Path 7" d="M110.436 244.123H29.062A29.1 29.1 0 010 215.061V63.937a29.1 29.1 0 0129.062-29.062h23.25a5.813 5.813 0 010 11.625h-23.25a17.459 17.459 0 00-17.437 17.437v151.124a17.459 17.459 0 0017.437 17.437h81.374a5.813 5.813 0 110 11.625z"/><path data-name="Path 8" d="M133.687 69.749h-69.75A17.459 17.459 0 0146.5 52.312v-23.25a5.815 5.815 0 015.812-5.812h18.019a29.069 29.069 0 0156.962 0h18.019a5.815 5.815 0 015.812 5.812v23.25a17.459 17.459 0 01-17.437 17.437zM58.125 34.875v17.437a5.822 5.822 0 005.812 5.812h69.75a5.822 5.822 0 005.813-5.812V34.875h-17.438a5.815 5.815 0 01-5.812-5.812 17.438 17.438 0 00-34.875 0 5.815 5.815 0 01-5.812 5.812z"/><path data-name="Path 9" d="M156.936 104.624H40.687a5.813 5.813 0 010-11.625h116.249a5.813 5.813 0 110 11.625z"/><path data-name="Path 10" d="M122.062 139.499H40.687a5.813 5.813 0 010-11.625h81.375a5.813 5.813 0 010 11.625z"/><path data-name="Path 11" d="M98.812 174.373H40.687a5.813 5.813 0 010-11.625h58.125a5.813 5.813 0 010 11.625z"/><path data-name="Path 12" d="M191.811 104.624a5.815 5.815 0 01-5.812-5.812V63.937A17.459 17.459 0 00168.561 46.5h-23.25a5.813 5.813 0 110-11.625h23.25a29.1 29.1 0 0129.062 29.062v34.875a5.815 5.815 0 01-5.812 5.812z"/><g data-name="Group 19"><g data-name="Group 18"><path data-name="Path 13" d="M181.497 134a53.5 53.5 0 1053.5 53.5 53.5 53.5 0 00-53.5-53.5zm0 99.355a45.856 45.856 0 1145.855-45.855 45.856 45.856 0 01-45.855 45.855z"/></g></g><g data-name="Group 23"><g data-name="Group 22"><path data-name="Path 15" d="M216.709 185.596c-.645-.882-16.007-21.6-35.627-21.6s-34.985 20.718-35.627 21.599a2.382 2.382 0 000 2.808c.644.882 16.007 21.6 35.627 21.6s34.982-20.714 35.627-21.595a2.379 2.379 0 000-2.812zm-35.627 19.644c-14.452 0-26.97-13.748-30.675-18.243 3.7-4.5 16.192-18.239 30.675-18.239 14.452 0 26.968 13.746 30.675 18.243-3.701 4.498-16.192 18.239-30.675 18.239z"/></g></g><g data-name="Group 25"><g data-name="Group 24"><path data-name="Path 16" d="M181.084 172.724a14.276 14.276 0 1014.273 14.275 14.292 14.292 0 00-14.273-14.275zm0 23.792a9.517 9.517 0 119.514-9.517 9.528 9.528 0 01-9.514 9.517z"/></g></g></symbol><symbol viewBox="0 0 30 30" id="wallet" xmlns="http://www.w3.org/2000/svg"><path fill="none" d="M0 0h30v30H0z"/><path d="M18.764 19.337v-4.3h6.237v4.3zm5.161-3.226h-4.086v2.151h4.086zM18.118 7.72l-3.226 2.151h-1.936L14.462 8.8l-1.29-1.29-2.581 2.366H8.656l4.253-3.736a.44.44 0 01.643 0l1.84 1.924 2.8-1.691a.443.443 0 01.621.174l1.884 3.329h-1.503z"/><path d="M23.065 14.175V10.95H6.075v12.473h16.99v-3.225h1.075v4.3H5V9.875h19.14v4.3z"/></symbol><symbol viewBox="0 0 20 18.499" id="wallet-large" xmlns="http://www.w3.org/2000/svg"><path d="M13.764 13.337v-4.3h6.237v4.3zm5.161-3.226h-4.086v2.151h4.086zM13.118 1.72L9.892 3.871H7.956L9.462 2.8l-1.29-1.29-2.581 2.366H3.656L7.909.14a.44.44 0 01.643 0l1.84 1.924 2.8-1.691a.443.443 0 01.621.174l1.884 3.329h-1.503z" fill="#30302e" fill-rule="evenodd"/><path d="M18.065 8.175V4.95H1.075v12.473h16.99v-3.225h1.075v4.3H0V3.875h19.14v4.3z"/></symbol><symbol viewBox="0 0 512 512" id="withdraw" xmlns="http://www.w3.org/2000/svg"><path d="M312.942 424.774L276 461.28V276c0-11.046-8.954-20-20-20s-20 8.954-20 20v183.303l-34.942-34.529c-7.857-7.764-20.52-7.688-28.284.168-7.764 7.857-7.688 20.52.168 28.284l41.589 41.098C225.878 505.724 240.955 512 257 512s31.122-6.276 42.469-17.676l41.589-41.098c7.856-7.764 7.932-20.427.168-28.284-7.765-7.857-20.427-7.933-28.284-.168zM492 276c-11.046 0-20 8.954-20 20 0 22.056-17.944 40-40 40h-96c-11.046 0-20 8.954-20 20s8.954 20 20 20h96c44.112 0 80-35.888 80-80 0-11.046-8.954-20-20-20z"/><path d="M311.172 253.815a19.898 19.898 0 0010.809 3.187c6.573 0 13.011-3.237 16.834-9.174C350.712 229.354 357 208.277 357 186.878c0-59.551-45.309-108-101-108s-101 48.449-101 108c0 22.906 5.798 43.438 17.233 61.024 6.021 9.26 18.41 11.886 27.669 5.865 9.26-6.021 11.886-18.409 5.865-27.669-7.144-10.989-10.767-24.183-10.767-39.22 0-37.495 27.364-68 61-68s61 30.505 61 68c0 13.702-4.085 27.29-11.815 39.293-5.98 9.288-3.3 21.664 5.987 27.644z"/><circle cx="415" cy="187" r="20"/><circle cx="97" cy="187" r="20"/><path d="M432 0H80C35.888 0 0 35.888 0 80v216c0 44.112 35.888 80 80 80h96c11.046 0 20-8.954 20-20s-8.954-20-20-20H80c-22.056 0-40-17.944-40-40V80c0-22.056 17.944-40 40-40h352c22.056 0 40 17.944 40 40v116c0 11.046 8.954 20 20 20s20-8.954 20-20V80c0-44.112-35.888-80-80-80z"/></symbol></svg>