<svg xmlns="http://www.w3.org/2000/svg" width="603.876" height="297" viewBox="0 0 603.876 297">
  <defs>
    <style>
      .cls-1 {
        fill: #8337e6;
      }

      .cls-1, .cls-2, .cls-3 {
        fill-rule: evenodd;
      }

      .cls-3, .cls-4 {
        fill: #06d260;
        fill-opacity: 0;
        stroke: #06d26e;
        stroke-width: 2px;
      }
    </style>
  </defs>
  <path id="Forma_1" data-name="Forma 1" class="cls-1" d="M773.334,550.063H743v72.812l21.567-19.824A116.515,116.515,0,0,0,975.09,550.063H945.666a87.386,87.386,0,0,1-159.412,33.078l35.979-33.078h-48.9ZM859.5,419A116.522,116.522,0,0,0,743.9,520.938h29.431a87.4,87.4,0,0,1,160.784-30.931l-30.93,30.931H976V448.125L955.152,468.98A116.326,116.326,0,0,0,859.5,419Z" transform="translate(-559.094 -373)"/>
  <path id="_4" data-name="4" class="cls-2" d="M694.291,578.684V430.244H661.747L559.109,578.252v29.79H664.863v43.273h29.428V608.042H725.27V578.684H694.291ZM665.863,472.332l-1,106.352h-75.2Z" transform="translate(-559.094 -373)"/>
  <path id="_4_copy_2" data-name="4 copy 2" class="cls-2" d="M1114.29,578.684V430.244h-32.54L979.109,578.252v29.79H1084.86v43.273h29.43V608.042h30.98V578.684h-30.98Zm-28.43-106.352-1,106.352h-75.2Z" transform="translate(-559.094 -373)"/>
  <g id="stars">
    <path class="cls-3" d="M1036.44,374a9.479,9.479,0,1,1-9.88,9.471A9.688,9.688,0,0,1,1036.44,374Z" transform="translate(-559.094 -373)"/>
    <circle id="Ellipse_7_copy_2" data-name="Ellipse 7 copy 2" class="cls-4" cx="200.937" cy="281.969" r="9.875"/>
    <path id="Ellipse_7_copy" data-name="Ellipse 7 copy" class="cls-3" d="M584.776,486.509A6.781,6.781,0,1,1,578,493.29,6.778,6.778,0,0,1,584.776,486.509Z" transform="translate(-559.094 -373)"/>
    <path id="Forma_1-2" data-name="Forma 1" class="cls-1" d="M774.034,388.113l6.709-6.43a1.47,1.47,0,0,0,0-2.143,1.63,1.63,0,0,0-2.236,0l-6.709,6.43-6.709-6.43a1.63,1.63,0,0,0-2.236,0,1.47,1.47,0,0,0,0,2.143l6.709,6.43-6.709,6.43a1.47,1.47,0,0,0,0,2.143,1.63,1.63,0,0,0,2.236,0l6.709-6.43,6.709,6.43a1.63,1.63,0,0,0,2.236,0,1.47,1.47,0,0,0,0-2.143Z" transform="translate(-559.094 -373)"/>
    <path id="Forma_1_copy_2" data-name="Forma 1 copy 2" class="cls-1" d="M1155.78,529.43l6.71-6.43a1.467,1.467,0,0,0,0-2.143,1.622,1.622,0,0,0-2.23,0l-6.71,6.43-6.71-6.43a1.635,1.635,0,0,0-2.24,0,1.484,1.484,0,0,0,0,2.143l6.71,6.43-6.71,6.43a1.484,1.484,0,0,0,0,2.143,1.635,1.635,0,0,0,2.24,0l6.71-6.43,6.71,6.43a1.622,1.622,0,0,0,2.23,0,1.467,1.467,0,0,0,0-2.143Z" transform="translate(-559.094 -373)"/>
    <path id="Forma_1_copy" data-name="Forma 1 copy" class="cls-1" d="M604.654,662.986l4.99-4.992a1.176,1.176,0,0,0-1.663-1.664l-4.99,4.992L598,656.33a1.176,1.176,0,1,0-1.663,1.664l4.99,4.992-4.99,4.993A1.176,1.176,0,0,0,598,669.643l4.99-4.993,4.99,4.993a1.176,1.176,0,0,0,1.663-1.664Z" transform="translate(-559.094 -373)"/>
  </g>
</svg>
