<svg xmlns="http://www.w3.org/2000/svg" width="47.97" height="48" viewBox="0 0 47.97 48">
  <defs>
    <style>
      .cls-1 {
        fill-rule: evenodd;
      }
    </style>
  </defs>
  <path class="cls-1" d="M1172.96,506.731a4.72,4.72,0,0,0-3.43-1.571,4.914,4.914,0,0,0-3.47,1.561l-3.2,3.191c-0.27-.141-0.53-0.273-0.78-0.4-0.37-.182-0.71-0.354-1.01-0.537a34.934,34.934,0,0,1-8.35-7.6,20.506,20.506,0,0,1-2.74-4.317c0.84-.76,1.61-1.55,2.36-2.31l0.85-.861a4.646,4.646,0,0,0,0-7.012l-2.77-2.766c-0.32-.315-0.64-0.639-0.94-0.963-0.61-.628-1.25-1.277-1.91-1.885a4.817,4.817,0,0,0-3.4-1.489,4.964,4.964,0,0,0-3.45,1.489l-0.02.021-3.45,3.475a7.39,7.39,0,0,0-2.2,4.712,17.633,17.633,0,0,0,1.3,7.518,43.58,43.58,0,0,0,7.76,12.929,47.666,47.666,0,0,0,15.9,12.433,24.773,24.773,0,0,0,8.93,2.635c0.21,0.01.43,0.02,0.64,0.02a7.643,7.643,0,0,0,5.85-2.513c0.01-.02.03-0.03,0.04-0.051a23.456,23.456,0,0,1,1.78-1.834c0.43-.415.88-0.851,1.31-1.307a5.036,5.036,0,0,0,1.54-3.506,4.854,4.854,0,0,0-1.57-3.475Zm3.64,10.67c-0.01,0-.01.01,0,0-0.4.425-.81,0.81-1.24,1.236a26.837,26.837,0,0,0-1.96,2.026,4.879,4.879,0,0,1-3.81,1.611c-0.16,0-.32,0-0.47-0.01a22.073,22.073,0,0,1-7.92-2.371,45.064,45.064,0,0,1-14.97-11.713,41.321,41.321,0,0,1-7.31-12.149,14.518,14.518,0,0,1-1.13-6.343,4.652,4.652,0,0,1,1.4-3.01l3.46-3.455a2.284,2.284,0,0,1,1.54-.719,2.157,2.157,0,0,1,1.48.709l0.03,0.03c0.62,0.578,1.21,1.176,1.83,1.814,0.31,0.324.64,0.649,0.96,0.983l2.77,2.766a1.928,1.928,0,0,1,0,3.141c-0.29.294-.58,0.588-0.87,0.872-0.85.871-1.66,1.682-2.55,2.472a0.217,0.217,0,0,0-.05.051,2.075,2.075,0,0,0-.53,2.3l0.03,0.091a22.285,22.285,0,0,0,3.28,5.34l0.01,0.01a37.163,37.163,0,0,0,9.01,8.187,13.817,13.817,0,0,0,1.25.679c0.36,0.183.71,0.355,1,.537,0.04,0.02.09,0.051,0.13,0.071a2.187,2.187,0,0,0,1,.253,2.164,2.164,0,0,0,1.54-.7l3.47-3.465a2.321,2.321,0,0,1,1.53-.76,2.1,2.1,0,0,1,1.47.74l0.02,0.02,5.59,5.583A2.008,2.008,0,0,1,1176.6,517.4Zm-15.65-28.99a13.042,13.042,0,0,1,10.63,10.619,1.367,1.367,0,0,0,1.35,1.135,1.942,1.942,0,0,0,.24-0.02,1.367,1.367,0,0,0,1.12-1.581,15.77,15.77,0,0,0-12.86-12.848,1.373,1.373,0,0,0-1.58,1.114A1.344,1.344,0,0,0,1160.95,488.411Zm22.04,9.758a26,26,0,0,0-21.19-21.157,1.361,1.361,0,0,0-1.57,1.114,1.38,1.38,0,0,0,1.13,1.581,23.2,23.2,0,0,1,18.93,18.908,1.36,1.36,0,0,0,1.35,1.134,1.785,1.785,0,0,0,.23-0.02A1.347,1.347,0,0,0,1182.99,498.169Z" transform="translate(-1135.03 -477)"/>
</svg>
