<svg xmlns="http://www.w3.org/2000/svg" width="38" height="54" viewBox="0 0 38 54">
  <defs>
    <style>
      .cls-1 {
        fill-rule: evenodd;
      }
    </style>
  </defs>
  <path id="Forma_1" data-name="Forma 1" class="cls-1" d="M496,474a18.985,18.985,0,0,0-16.164,28.967l15.082,24.285a1.585,1.585,0,0,0,1.346.748h0.012a1.582,1.582,0,0,0,1.346-.769l14.7-24.52A18.986,18.986,0,0,0,496,474Zm13.6,27.086L496.24,523.379,482.528,501.3A15.844,15.844,0,1,1,509.6,501.086ZM496,483.492a9.493,9.493,0,1,0,9.5,9.492A9.507,9.507,0,0,0,496,483.492Zm0,15.842a6.35,6.35,0,1,1,6.344-6.35A6.357,6.357,0,0,1,496,499.334Z" transform="translate(-477 -474)"/>
</svg>
