<svg xmlns="http://www.w3.org/2000/svg" width="48" height="36" viewBox="0 0 48 36">
  <defs>
    <style>
      .cls-1 {
        fill-rule: evenodd;
      }
    </style>
  </defs>
  <path id="Forma_1" data-name="Forma 1" class="cls-1" d="M837.781,483H798.219A4.193,4.193,0,0,0,794,487.154v27.692A4.194,4.194,0,0,0,798.219,519h39.562A4.193,4.193,0,0,0,842,514.846V487.154A4.194,4.194,0,0,0,837.781,483Zm-0.582,2.769-19.11,18.816-19.274-18.816H837.2Zm-40.386,28.5V487.714l13.544,13.222Zm1.988,1.958,13.554-13.345,4.749,4.636a1.421,1.421,0,0,0,1.984,0l4.631-4.559,13.48,13.273H798.8Zm40.387-1.958L825.707,501l13.481-13.273v26.546Z" transform="translate(-794 -483)"/>
</svg>
