<svg xmlns="http://www.w3.org/2000/svg" width="31" height="41" viewBox="0 0 31 41">
  <defs>
    <style>
      .cls-1 {
        fill-rule: evenodd;
      }
    </style>
  </defs>
  <path id="Forma_1" data-name="Forma 1" class="cls-1" d="M300.638,287.323H295.49v-1.977a1.362,1.362,0,0,0-2.724,0v1.977h-4.9v-1.977a1.362,1.362,0,0,0-2.724,0v1.977h-4.9v-1.977a1.362,1.362,0,0,0-2.724,0v1.977h-5.148A1.354,1.354,0,0,0,271,288.668v34.986A1.354,1.354,0,0,0,272.362,325h28.276A1.354,1.354,0,0,0,302,323.654V288.668A1.354,1.354,0,0,0,300.638,287.323Zm-1.362,34.985H273.724V290.014h3.786v1.571a1.362,1.362,0,0,0,2.724,0v-1.571h4.9v1.571a1.362,1.362,0,0,0,2.724,0v-1.571h4.9v1.571a1.362,1.362,0,0,0,2.724,0v-1.571h3.786v32.294Zm-4.712-23.262H278.436a1.346,1.346,0,1,0,0,2.691h16.128A1.346,1.346,0,1,0,294.564,299.046Zm0,7.536H278.436a1.346,1.346,0,1,0,0,2.692h16.128A1.346,1.346,0,1,0,294.564,306.582Zm0,7.536H278.436a1.346,1.346,0,1,0,0,2.692h16.128A1.346,1.346,0,1,0,294.564,314.118Z" transform="translate(-271 -284)"/>
</svg>
