<svg xmlns="http://www.w3.org/2000/svg" width="55" height="55" viewBox="0 0 55 55">
  <defs>
    <style>
      .cls-1 {
        fill: #14e06e;
        fill-rule: evenodd;
      }
    </style>
  </defs>
  <path id="ICON" class="cls-1" d="M997.885,897.679h5.945l2.14,4.272a0.878,0.878,0,0,0,1.57,0l2.14-4.272h0.43a0.878,0.878,0,1,0,0-1.755h-0.98a0.873,0.873,0,0,0-.78.485l-1.59,3.187-1.6-3.187a0.875,0.875,0,0,0-.78-0.485h-6.5a0.13,0.13,0,0,1-.13-0.129V873.884a0.13,0.13,0,0,1,.13-0.129h17.745a0.123,0.123,0,0,1,.12.129V883.4a0.88,0.88,0,0,0,1.76,0v-9.514a1.889,1.889,0,0,0-1.88-1.885H997.885A1.887,1.887,0,0,0,996,873.884v21.91A1.886,1.886,0,0,0,997.885,897.679Zm8.875-22.169a4.391,4.391,0,1,0,4.39,4.39A4.4,4.4,0,0,0,1006.76,875.51Zm0,7.025a2.635,2.635,0,1,1,2.63-2.635A2.638,2.638,0,0,1,1006.76,882.535Zm0,5.267a5.456,5.456,0,0,1,2.9.831,0.877,0.877,0,1,0,.93-1.487,7.242,7.242,0,0,0-11.079,6.145,0.878,0.878,0,0,0,.879.877h9.72a0.878,0.878,0,1,0,0-1.755h-8.77A5.5,5.5,0,0,1,1006.76,887.8Zm42.36-15.8h-17.75a1.889,1.889,0,0,0-1.88,1.885V883.4a0.875,0.875,0,1,0,1.75,0v-9.514a0.131,0.131,0,0,1,.13-0.129h17.75a0.123,0.123,0,0,1,.12.129v21.91a0.123,0.123,0,0,1-.12.13h-6.5a0.873,0.873,0,0,0-.78.485l-1.6,3.187-1.59-3.187a0.873,0.873,0,0,0-.78-0.485h-0.98a0.878,0.878,0,1,0,0,1.755h0.43l2.14,4.272a0.878,0.878,0,0,0,1.57,0l2.14-4.272h5.95a1.889,1.889,0,0,0,1.88-1.885v-21.91A1.889,1.889,0,0,0,1049.12,872Zm-8.88,3.511a4.391,4.391,0,1,0,4.4,4.39A4.4,4.4,0,0,0,1040.24,875.51Zm0,7.025a2.635,2.635,0,1,1,2.64-2.635A2.636,2.636,0,0,1,1040.24,882.535Zm-4.23,10.756a0.876,0.876,0,0,0,.88.877h9.72a0.876,0.876,0,0,0,.88-0.877,7.243,7.243,0,0,0-11.08-6.145,0.877,0.877,0,1,0,.93,1.488,5.486,5.486,0,0,1,8.32,3.779h-8.77A0.876,0.876,0,0,0,1036.01,893.291Zm-23.27-5.375v21.91a1.89,1.89,0,0,0,1.89,1.884h5.95l2.13,4.272a0.891,0.891,0,0,0,.79.486,0.865,0.865,0,0,0,.78-0.486l2.14-4.272h5.95a1.882,1.882,0,0,0,1.88-1.884v-21.91a1.882,1.882,0,0,0-1.88-1.885h-17.74A1.891,1.891,0,0,0,1012.74,887.916Zm19.76,0v21.91a0.131,0.131,0,0,1-.13.129h-6.49a0.89,0.89,0,0,0-.79.485l-1.59,3.187-1.59-3.187a0.89,0.89,0,0,0-.79-0.485h-6.49a0.131,0.131,0,0,1-.13-0.129v-21.91a0.131,0.131,0,0,1,.13-0.13h17.74A0.131,0.131,0,0,1,1032.5,887.916Zm-9,10.406a4.391,4.391,0,1,0-4.39-4.39A4.4,4.4,0,0,0,1023.5,898.322Zm0-7.025a2.635,2.635,0,1,1-2.64,2.635A2.636,2.636,0,0,1,1023.5,891.3Zm-6.37,16.9h12.74a0.874,0.874,0,0,0,.87-0.878,7.24,7.24,0,1,0-14.48,0A0.874,0.874,0,0,0,1017.13,908.2Zm6.37-6.367a5.5,5.5,0,0,1,5.42,4.611h-10.84A5.5,5.5,0,0,1,1023.5,901.833Zm17.14,21.714a0.936,0.936,0,1,0-.93-0.936A0.938,0.938,0,0,0,1040.64,923.547Zm-4.79,0a0.936,0.936,0,1,0-.94-0.936A0.936,0.936,0,0,0,1035.85,923.547Zm9.59,0a0.936,0.936,0,1,0-.93-0.936A0.938,0.938,0,0,0,1045.44,923.547Zm4.68-5.324H996.878a0.877,0.877,0,0,0-.878.877v7.022a0.877,0.877,0,0,0,.878.877h53.242a0.876,0.876,0,0,0,.88-0.877V919.1A0.876,0.876,0,0,0,1050.12,918.223Zm-52.365,1.755h32.475v5.266H997.755v-5.266Zm51.485,5.266h-17.26v-5.266h17.26v5.266Z" transform="translate(-996 -872)"/>
</svg>
