<svg xmlns="http://www.w3.org/2000/svg" width="63.969" height="64" viewBox="0 0 63.969 64">
  <defs>
    <style>
      .cls-1 {
        fill: #8337e6;
        fill-rule: evenodd;
      }
    </style>
  </defs>
  <path id="ICON" class="cls-1" d="M304.012,1457.15a10.08,10.08,0,1,0-10.073-10.08A10.087,10.087,0,0,0,304.012,1457.15Zm0-18.12a8.035,8.035,0,1,1-8.031,8.04A8.047,8.047,0,0,1,304.012,1439.03Zm0,22.2a15.411,15.411,0,0,1,15.352,14.38H295.772a1.02,1.02,0,1,0,0,2.04h24.647a1.023,1.023,0,0,0,1.021-1.02,17.428,17.428,0,1,0-34.856,0,1.023,1.023,0,0,0,1.021,1.02h4.083a1.02,1.02,0,1,0,0-2.04h-3.029A15.412,15.412,0,0,1,304.012,1461.23Zm-12.875,27.2-5.6-.94-2.625-5.04a1.02,1.02,0,0,0-1.81,0l-2.625,5.04-5.6.94a1.036,1.036,0,0,0-.8.69,1.015,1.015,0,0,0,.242,1.03l3.979,4.06-0.837,5.62a1.015,1.015,0,0,0,1.465,1.06l5.083-2.53,5.083,2.53a0.924,0.924,0,0,0,.455.11,1.082,1.082,0,0,0,.6-0.19,1.029,1.029,0,0,0,.409-0.98l-0.836-5.62,3.978-4.06a1.015,1.015,0,0,0,.242-1.03A1.033,1.033,0,0,0,291.137,1488.43Zm-5.232,4.71a1.026,1.026,0,0,0-.281.87l0.623,4.18-3.785-1.88a0.976,0.976,0,0,0-.91,0l-3.785,1.88,0.623-4.18a1.029,1.029,0,0,0-.281-0.87l-2.962-3.02,4.169-.7a1.018,1.018,0,0,0,.737-0.53l1.954-3.76,1.954,3.76a1.016,1.016,0,0,0,.736.53l4.17,0.7Zm27.237-4.71-5.6-.94-2.624-5.04a1.02,1.02,0,0,0-1.81,0l-2.625,5.04-5.6.94a1.036,1.036,0,0,0-.8.69,1.015,1.015,0,0,0,.242,1.03l3.979,4.06-0.837,5.62a1.015,1.015,0,0,0,1.465,1.06l5.083-2.53,5.083,2.53a0.924,0.924,0,0,0,.455.11,1.082,1.082,0,0,0,.6-0.19,1.029,1.029,0,0,0,.41-0.98l-0.837-5.62,3.978-4.06a1.015,1.015,0,0,0,.243-1.03A1.036,1.036,0,0,0,313.142,1488.43Zm-5.232,4.71a1.026,1.026,0,0,0-.281.87l0.622,4.18-3.784-1.88a1,1,0,0,0-.91,0l-3.785,1.88,0.623-4.18a1.029,1.029,0,0,0-.281-0.87l-2.962-3.02,4.169-.7a1.018,1.018,0,0,0,.737-0.53l1.954-3.76,1.954,3.76a1.016,1.016,0,0,0,.736.53l4.17,0.7Zm28.038-4.02a1.033,1.033,0,0,0-.8-0.69l-5.6-.94-2.624-5.04a1.02,1.02,0,0,0-1.811,0l-2.624,5.04-5.6.94a1.036,1.036,0,0,0-.8.69,1.015,1.015,0,0,0,.242,1.03l3.978,4.06-0.836,5.62a1.015,1.015,0,0,0,1.465,1.06l5.082-2.53,5.083,2.53a0.924,0.924,0,0,0,.455.11,1.086,1.086,0,0,0,.6-0.19,1.031,1.031,0,0,0,.409-0.98l-0.837-5.62,3.979-4.06A1.015,1.015,0,0,0,335.948,1489.12Zm-6.033,4.02a1.026,1.026,0,0,0-.281.87l0.623,4.18-3.785-1.88a1,1,0,0,0-.91,0l-3.785,1.88,0.623-4.18a1.029,1.029,0,0,0-.281-0.87l-2.962-3.02,4.169-.7a1.018,1.018,0,0,0,.737-0.53l1.954-3.76,1.954,3.76a1.018,1.018,0,0,0,.736.53l4.17,0.7Zm-25.9-41.44a4.61,4.61,0,0,0,3.492-1.6,1.021,1.021,0,1,0-1.54-1.34,2.567,2.567,0,0,1-3.9,0,1.021,1.021,0,0,0-1.541,1.34A4.613,4.613,0,0,0,304.012,1451.7Z" transform="translate(-272.031 -1437)"/>
</svg>
