<svg id="favorites" xmlns="http://www.w3.org/2000/svg" width="105" height="105" viewBox="0 0 105 105">
  <defs>
    <style>
      .cls-1, .cls-2 {
        fill-rule: evenodd;
      }

      .cls-2 {
        fill: #8337e6;
      }
    </style>
  </defs>
  <path id="Forma_1" data-name="Forma 1" class="cls-1" d="M99,37.759l-32.821-4.8L51.5,3,36.822,32.955,4,37.759,27.75,61.076,22.144,94,51.5,78.455,80.857,94,75.25,61.076ZM51.5,71.066L30.769,82.043l3.959-23.251L17.956,42.326l23.179-3.392L51.5,17.779,61.866,38.934l23.178,3.392L68.272,58.792l3.96,23.251Z" transform="translate(1 1.5)"/>
  <path id="Rectangle_13_copy_3" data-name="Rectangle 13 copy 3" class="cls-2" d="M90.041,75l-7.946-12.6,5.957-3.661L96,71.337ZM72,23.4L80,11l6,3.6L78,27ZM48,85h6V99H48V85ZM19.565,14.982l5.943-3.7,7.927,12.734-5.943,3.7Zm-5.659,59.73L8,70.951,15.877,58l5.9,3.761Z" transform="translate(1 1.5)"/>
</svg>
