<svg id="logout" xmlns="http://www.w3.org/2000/svg" width="105" height="105" viewBox="0 0 105 105">
  <defs>
    <style>
      .cls-1 {
        fill-rule: evenodd;
      }

      .cls-2 {
        fill: #8337e6;
      }
    </style>
  </defs>
  <path class="cls-1" d="M52,95A41.878,41.878,0,0,1,10,53.245C10,34.075,23.29,17.9,41,13v6A35.535,35.535,0,0,0,16,53c0,19.837,15.8,35,36,35S88,72.837,88,53A35.535,35.535,0,0,0,63,19V13c17.71,4.9,31,21.075,31,40.245A41.878,41.878,0,0,1,52,95Z" transform="translate(0.5 1.5)"/>
  <rect class="cls-2" x="49.5" y="8.5" width="6" height="44"/>
</svg>
