<svg id="teacher" xmlns="http://www.w3.org/2000/svg" width="105" height="105" viewBox="0 0 105 105">
  <defs>
    <style>
      .cls-1 {
        fill: #8337e6;
      }

      .cls-1, .cls-2 {
        fill-rule: evenodd;
      }
    </style>
  </defs>
  <g>
    <path class="cls-1" d="M41,59l3.178,8.5L36,94h7l6-23h8l5,23h7L61.822,67.319,64.578,59l-5.514-.185L57,65H49l-2-6H41Z" transform="translate(-0.5 1)"/>
    <path class="cls-2" d="M19,99V76s2.512-18.524,21.319-21.543H62.557S83.079,53.93,87,75V99H19ZM81,76C77.694,59.913,61.059,59.632,61.059,59.632H42.307C26.448,61.937,24,76,24,76V94H81V76ZM52.908,50.391A23.2,23.2,0,1,1,75.973,27.2,23.131,23.131,0,0,1,52.908,50.391ZM52.724,9.36A17.836,17.836,0,1,0,70.46,27.2,17.786,17.786,0,0,0,52.724,9.36Z" transform="translate(-0.5 1)"/>
  </g>
</svg>
