<svg id="plan" xmlns="http://www.w3.org/2000/svg" width="105" height="105" viewBox="0 0 105 105">
  <defs>
    <style>
      .cls-1, .cls-2 {
        fill-rule: evenodd;
      }

      .cls-2 {
        fill: #8337e6;
      }
    </style>
  </defs>
  <path id="Forma_1" data-name="Forma 1" class="cls-1" d="M67,56V35H16V85H53V56M52,40H63V51H52V40ZM21,40H31V51H21V40ZM31,80H21V70H31V80Zm0-15H21V56H31v9ZM48,51H36V40H48V51Zm43-2V9c0-.925-2.075-2-3-2H80L79.931,2.672A1.671,1.671,0,0,0,78.259,1H66.552a1.671,1.671,0,0,0-1.672,1.672L65,7H28l0.086-4.328A1.671,1.671,0,0,0,26.414,1H14.707a1.671,1.671,0,0,0-1.672,1.672L13,7H5C4.075,7,3,8.437,3,9.362V94.655C3,95.58,4.075,97,5,97H56a50.613,50.613,0,0,1,0-6H8V28H86V49M70,6h5v7H70V6ZM18,6h5v7H18V6ZM8,12h5l0.034,4.052A2.2,2.2,0,0,0,15,18H26a2.323,2.323,0,0,0,2.086-1.948L28,12H65l-0.121,4.052A2.36,2.36,0,0,0,67,18H78a2.163,2.163,0,0,0,1.931-1.948L80,12h6V23H8V12ZM36,56H48v9H36V56Zm0,14H48V80H36V70Z" transform="translate(2 2)"/>
  <path class="cls-2" d="M77.5,100A20.5,20.5,0,1,1,98,79.5,20.5,20.5,0,0,1,77.5,100Zm0-35.46A14.96,14.96,0,1,0,92.46,79.5,14.96,14.96,0,0,0,77.5,64.54ZM73,85V71h5v9h9v5H73Z" transform="translate(2 2)"/>
</svg>
