<svg id="gift_cards" data-name="gift cards" xmlns="http://www.w3.org/2000/svg" width="105" height="105" viewBox="0 0 105 105">
  <defs>
    <style>
      .cls-1, .cls-2 {
        fill-rule: evenodd;
      }

      .cls-2 {
        fill: #8337e6;
      }
    </style>
  </defs>
  <path class="cls-1" d="M98,16H4c0.057,0.094-.031.006,0,3.084V90c0.031-.079,1.372,0,3.065,0H94.935A23.324,23.324,0,0,1,98,90V19.084C98,17.381,98.068,16.094,98,16ZM40.783,40.667a6.13,6.13,0,1,1,6.13,6.167H41.091a15.515,15.515,0,0,1-.308-3.083V40.667h0ZM35,84l-24.87-.167V53H31.579a15.282,15.282,0,0,1-12.252,6.167,3.083,3.083,0,0,0,0,6.167A22,22,0,0,0,35,59V84h0ZM34.652,43.75a15.516,15.516,0,0,1-.308,3.083H28.522a6.167,6.167,0,1,1,6.13-6.167V43.75h0Zm0-13.757a12.126,12.126,0,0,0-6.13-1.659,12.338,12.338,0,0,0-10.611,18.5H10.13L10,22l24.652,0.167v7.826h0ZM92,84H41V59a20.7,20.7,0,0,0,15.109,6.333,3.083,3.083,0,0,0,0-6.167A15.282,15.282,0,0,1,43.856,53H92V84h0Zm0-37-34.476-.166a12.338,12.338,0,0,0-10.612-18.5,12.125,12.125,0,0,0-6.13,1.659V22.167L92,22V47h0Z" transform="translate(1.484 -0.5)"/>
  <path class="cls-2" d="M63,62H87v6H63V62Zm0,11H87v6H63V73Z" transform="translate(1.484 -0.5)"/>
</svg>
