<svg xmlns="http://www.w3.org/2000/svg" width="249.781" height="64.844" viewBox="0 0 249.781 64.844">
  <defs>
    <style>
      .cls-1 {
        fill-rule: evenodd;
      }
    </style>
  </defs>
  <path id="Forma_1" data-name="Forma 1" class="cls-1" d="M45.017,16.514A10.338,10.338,0,0,0,41.3,12.378a17.07,17.07,0,0,0-5.912-2.239,46.842,46.842,0,0,0-8.034-.654l-14.21.01a3.583,3.583,0,0,0-3.27,2.681L0.313,55.132A2.065,2.065,0,0,0,2.37,57.809h6.8a3.513,3.513,0,0,0,3.265-2.677L14.775,44.7a3.508,3.508,0,0,1,3.262-2.664h1.946c8.322-.015,14.764-1.765,19.393-5.277a16.6,16.6,0,0,0,6.95-13.921A13.4,13.4,0,0,0,45.017,16.514ZM30.342,30.55c-2.057,1.553-4.917,2.332-8.605,2.332h-1.66A2.077,2.077,0,0,1,18.01,30.2l2.047-9.122A3.468,3.468,0,0,1,23.3,18.417l2.229-.015a10.618,10.618,0,0,1,5.919,1.366,4.692,4.692,0,0,1,1.963,4.182A7.7,7.7,0,0,1,30.342,30.55Zm93.541-5.6-27.11,47.3a5.67,5.67,0,0,1-4.266,2.671l-7.047.01c-1.464,0-1.943-1.2-1.053-2.676l6.028-10.835s0.486-.629.053-4.154c-0.927-6.4-5.554-33.57-5.554-33.57a2.06,2.06,0,0,1,2.035-2.681l6.1-.01a3.763,3.763,0,0,1,3.707,2.751L99.807,42.6l1.13,0.015c0.947-1.733,10.689-18.983,10.689-18.983a5.866,5.866,0,0,1,4.283-2.679s6.546,0.02,8.158,0C126.49,20.9,123.883,24.945,123.883,24.945Zm44.7-8.27a10.688,10.688,0,0,0-3.746-4.152,16.362,16.362,0,0,0-5.914-2.239,45.332,45.332,0,0,0-8-.644l-14.229.01a3.554,3.554,0,0,0-3.248,2.669L123.874,55.3a2.061,2.061,0,0,0,2.052,2.661l6.814-.01a3.55,3.55,0,0,0,3.267-2.651l2.309-10.435a3.535,3.535,0,0,1,3.267-2.666h1.95c8.33,0,14.786-1.767,19.437-5.27a16.784,16.784,0,0,0,6.916-13.943A14.032,14.032,0,0,0,168.58,16.674ZM153.905,30.73c-2.052,1.523-4.917,2.3-8.586,2.3h-1.694a2.084,2.084,0,0,1-2.081-2.674l2.062-9.1a3.488,3.488,0,0,1,3.253-2.664l2.211-.015a10.759,10.759,0,0,1,5.919,1.358,4.759,4.759,0,0,1,1.98,4.184A7.814,7.814,0,0,1,153.905,30.73ZM77.826,22.656q-3.851-2.239-12.163-2.239a52.2,52.2,0,0,0-8.233.659c-2.037.322-2.234,0.384-3.49,0.664a4.089,4.089,0,0,0-2.994,3.248L50.116,28.52c-0.469,2.255.789,2.167,1.314,1.98A34.129,34.129,0,0,1,55.5,29.262a28.192,28.192,0,0,1,6.374-.879,16.3,16.3,0,0,1,6.19.9,3.23,3.23,0,0,1,2.052,3.19L70,33.463l-0.983.624c-3.86.252-6.65,0.619-10.036,1.126a30.323,30.323,0,0,0-8.627,2.449,13.482,13.482,0,0,0-5.858,4.766,13.28,13.28,0,0,0-1.948,7.342,8.783,8.783,0,0,0,2.771,6.66,10.2,10.2,0,0,0,7.17,2.527,19.054,19.054,0,0,0,4.274-.41l3.3-1.168,2.79-1.6,2.565-1.742,0.036,0.045L65.187,55.2l-0.015.04v0.01a2.073,2.073,0,0,0,1.82,2.626l0.024,0.035h6.319l0.09-.045a3.549,3.549,0,0,0,2.928-2.626L81.314,33.1l0.259-1.805L81.691,29.6A7.436,7.436,0,0,0,77.826,22.656ZM66.857,47.563L65.8,49.011l-2.676,1.428a9.43,9.43,0,0,1-3.557.8,7.86,7.86,0,0,1-3.877-.769l-1.312-2.626a5.372,5.372,0,0,1,.995-3.425l2.885-2.027a24.542,24.542,0,0,1,4.487-1.044c1.556-.2,4.627-0.561,5.029-0.572l0.472,0.854C68.147,42.1,67.273,45.865,66.857,47.563ZM236.755,7.1h2.275V8.064h-2.275v3.123l0.01,0.844,0.164,0.562,0.359,0.359,0.7,0.112,0.571-.082,0.427-.132h0.057v1.026l-0.682.14-0.654.055-1.539-.572-0.532-1.8V8.064h-0.765V7.1h0.765V5.15h1.123V7.1h0ZM201.414,22.686q-3.87-2.239-12.158-2.244a50.326,50.326,0,0,0-8.228.674c-2.042.307-2.245,0.374-3.5,0.651a4.064,4.064,0,0,0-2.981,3.251l-0.833,3.527c-0.464,2.254.77,2.152,1.336,1.98a38.821,38.821,0,0,1,4.036-1.243,29.578,29.578,0,0,1,6.394-.879,16.32,16.32,0,0,1,6.176.9,3.22,3.22,0,0,1,2.052,3.185l-0.1.989-0.978.639c-3.9.239-6.688,0.606-10.042,1.113a30.424,30.424,0,0,0-8.64,2.449,13.51,13.51,0,0,0-5.856,4.771,13.18,13.18,0,0,0-1.945,7.317,8.716,8.716,0,0,0,2.778,6.671,10.244,10.244,0,0,0,7.163,2.542,18.5,18.5,0,0,0,4.269-.415l3.291-1.148,2.807-1.6L189,54.049l0.048,0.055-0.232,1.128-0.03.02,0.015,0.02a2.05,2.05,0,0,0,1.81,2.631l0.01,0.025h6.316l0.1-.035a3.515,3.515,0,0,0,2.894-2.641L204.9,33.126l0.256-1.815,0.145-1.7A7.436,7.436,0,0,0,201.414,22.686ZM190.466,47.593l-1.1,1.458-2.657,1.423a9.526,9.526,0,0,1-3.543.794A7.648,7.648,0,0,1,179.3,50.5l-1.327-2.621a5.581,5.581,0,0,1,.978-3.43,6.913,6.913,0,0,1,2.914-2.02,24.288,24.288,0,0,1,4.482-1.039c1.543-.2,4.607-0.574,5-0.579l0.474,0.858C191.754,42.141,190.872,45.885,190.466,47.593ZM226.935,12.66l0.014,0.005L217.84,55.253l-0.329.514a3.463,3.463,0,0,1-2.933,2.167h-6.33l-0.1-.145a1.983,1.983,0,0,1-1.709-2.5l-0.009-.04,0.271-1.229,8.523-39.948,0.3-1.391,0.339-.542a3.46,3.46,0,0,1,2.923-2.132h6.1A2.054,2.054,0,0,1,226.935,12.66Zm22.6-5.068L250.055,9.5v4.434h-1.1v-3.9L248.874,9.2l-0.135-.662-0.4-.392-0.736-.14-0.929.242-0.944.617L245.752,9.2l0.015,0.362v4.366h-1.1v-3.9l-0.048-.844-0.164-.654-0.378-.392L243.318,8l-0.915.235-0.924.594v5.1h-1.1V7.1h1.1V7.854l1.045-.7,1.108-.25L244.78,7.19,245.491,8l1.215-.849,1.2-.249Z" transform="translate(-0.219 -5.156)"/>
</svg>