<svg xmlns="http://www.w3.org/2000/svg" xmlns:xlink="http://www.w3.org/1999/xlink" width="490" height="425" viewBox="0 0 490 425"><defs><style>.a,.e{fill:#fff;}.a{stroke:#e2e2e2;}.b,.f{fill:none;}.b{stroke:#ebebeb;}.c,.h,.i{fill:#0037b4;}.d,.k,.n{fill:#ff5200;}.e{stroke:#e5e5e5;}.g{fill:#d6d6d6;}.h,.k{opacity:0.07;}.i,.l,.n{opacity:0.1;}.j{fill:#eee;}.m{fill:rgba(255,82,0,0.07);}.o{stroke:none;}.p{filter:url(#g);}.q{filter:url(#e);}.r{filter:url(#c);}.s{filter:url(#a);}</style><filter id="a" x="32.3" y="0" width="425" height="425" filterUnits="userSpaceOnUse"><feOffset dy="15" input="SourceAlpha"/><feGaussianBlur stdDeviation="7.5" result="b"/><feFlood flood-opacity="0.02"/><feComposite operator="in" in2="b"/><feComposite in="SourceGraphic"/></filter><filter id="c" x="20.449" y="113.5" width="449.551" height="103.119" filterUnits="userSpaceOnUse"><feOffset dy="5" input="SourceAlpha"/><feGaussianBlur stdDeviation="5" result="d"/><feFlood flood-opacity="0.039"/><feComposite operator="in" in2="d"/><feComposite in="SourceGraphic"/></filter><filter id="e" x="20.449" y="264.898" width="449.551" height="103.119" filterUnits="userSpaceOnUse"><feOffset dy="5" input="SourceAlpha"/><feGaussianBlur stdDeviation="5" result="f"/><feFlood flood-opacity="0.039"/><feComposite operator="in" in2="f"/><feComposite in="SourceGraphic"/></filter><filter id="g" x="0" y="185.499" width="490" height="111.176" filterUnits="userSpaceOnUse"><feOffset dy="5" input="SourceAlpha"/><feGaussianBlur stdDeviation="5" result="h"/><feFlood flood-opacity="0.039"/><feComposite operator="in" in2="h"/><feComposite in="SourceGraphic"/></filter></defs><g transform="translate(55 7.02)"><g class="s" transform="matrix(1, 0, 0, 1, -55, -7.02)"><g class="a" transform="translate(54.8 7.5)"><rect class="o" width="380" height="380"/><rect class="f" x="0.5" y="0.5" width="379" height="379"/></g></g><g transform="translate(-3.2 12.583)"><line class="b" x2="386.4" transform="translate(0 28.217)"/><g transform="translate(26.063)"><path class="c" d="M46.421,16.011l-6.171-3.2V0l6.171,3.2Z" transform="translate(-32.311)"/><path class="d" d="M25.061,44.451l-6.171-3.2V28.44l6.171,3.2Z" transform="translate(-15.164 -22.831)"/><path class="c" d="M6.173,16.011,0,12.816V0L6.173,3.2Z"/></g></g><g transform="translate(20 61.479)"><g class="e"><rect class="o" width="230" height="37"/><rect class="f" x="0.5" y="0.5" width="229" height="36"/></g><g transform="translate(13 9)"><path class="f" d="M0,0H17.832V17.832H0Z"/><path class="g" d="M13.911,12.86l3.182,3.182-1.051,1.051L12.86,13.911a6.688,6.688,0,1,1,1.051-1.051Zm-1.49-.551a5.2,5.2,0,1,0-.111.111Z" transform="translate(-0.514 -0.514)"/></g><g transform="translate(303)"><g class="e" transform="translate(0)"><rect class="o" width="37" height="37"/><rect class="f" x="0.5" y="0.5" width="36" height="36"/></g><g transform="translate(10 10)"><path class="f" d="M0,0H17.572V17.572H0Z"/><path class="g" d="M5.053,13.714a2.2,2.2,0,0,1,4.144,0h7.446v1.464H9.2a2.2,2.2,0,0,1-4.144,0H2V13.714ZM9.446,8.589a2.2,2.2,0,0,1,4.144,0h3.053v1.464H13.59a2.2,2.2,0,0,1-4.144,0H2V8.589ZM5.053,3.464a2.2,2.2,0,0,1,4.144,0h7.446V4.928H9.2a2.2,2.2,0,0,1-4.144,0H2V3.464ZM7.125,4.928A.732.732,0,1,0,6.393,4.2.732.732,0,0,0,7.125,4.928Zm4.393,5.125a.732.732,0,1,0-.732-.732A.732.732,0,0,0,11.518,10.053ZM7.125,15.179a.732.732,0,1,0-.732-.732A.732.732,0,0,0,7.125,15.179Z" transform="translate(-0.536 -0.535)"/></g></g></g><g transform="translate(-20 87.255)"><g transform="translate(0.449 29.225)"><g class="r" transform="matrix(1, 0, 0, 1, -35.45, -123.5)"><g class="a" transform="translate(35.45 123.5)"><rect class="o" width="419.551" height="73.119"/><rect class="f" x="0.5" y="0.5" width="418.551" height="72.119"/></g></g><g transform="translate(11.58 13.058)"><rect class="h" width="49.883" height="48.746" transform="translate(0)"/><g transform="translate(10.712 5.916)"><path class="c" d="M32.2,37.169H4V33.724a8.714,8.714,0,0,1,8.812-8.612H23.387A8.714,8.714,0,0,1,32.2,33.724Zm-14.1-15.5A10.457,10.457,0,0,1,7.525,11.334,10.457,10.457,0,0,1,18.1,1,10.457,10.457,0,0,1,28.675,11.334,10.457,10.457,0,0,1,18.1,21.668Z" transform="translate(-4 -1)"/></g></g><g transform="translate(73.043 13.058)"><rect class="i" width="74.824" height="5.223" transform="translate(0)"/><rect class="i" width="16.925" height="5.223" transform="translate(88.186)"/></g><g transform="translate(72.957 25.746)"><path class="j" d="M6.782,9.92,2.954,12.014l.855-4.205L.587,4.9l4.357-.5L6.782.5,8.62,4.393l4.357.5L9.755,7.809l.855,4.205Z" transform="translate(-0.587 -0.5)"/><path class="j" d="M6.782,9.92,2.954,12.014l.855-4.205L.587,4.9l4.357-.5L6.782.5,8.62,4.393l4.357.5L9.755,7.809l.855,4.205Z" transform="translate(11.803 -0.5)"/><path class="j" d="M6.782,9.92,2.954,12.014l.855-4.205L.587,4.9l4.357-.5L6.782.5,8.62,4.393l4.357.5L9.755,7.809l.855,4.205Z" transform="translate(24.812 -0.5)"/><path class="j" d="M6.782,9.92,2.954,12.014l.855-4.205L.587,4.9l4.357-.5L6.782.5,8.62,4.393l4.357.5L9.755,7.809l.855,4.205Z" transform="translate(37.202 -0.5)"/><path class="j" d="M6.782,9.92,2.954,12.014l.855-4.205L.587,4.9l4.357-.5L6.782.5,8.62,4.393l4.357.5L9.755,7.809l.855,4.205Z" transform="translate(49.591 -0.5)"/></g><g transform="translate(73.043 47.876)"><rect class="j" width="74.824" height="2.622" transform="translate(0)"/><rect class="j" width="20.488" height="2.622" transform="translate(80.169)"/><rect class="j" width="36.521" height="2.622" transform="translate(105.111)"/><rect class="j" width="16.925" height="2.622" transform="translate(150.54)"/><rect class="j" width="25.832" height="2.622" transform="translate(172.809)"/></g><g transform="translate(73.043 57.451)"><rect class="j" width="74.824" height="2.622" transform="translate(92.64)"/><rect class="j" width="19.597" height="2.622" transform="translate(0)"/><rect class="j" width="37.412" height="2.622" transform="translate(25.832)"/><rect class="j" width="19.597" height="2.622" transform="translate(68.589)"/></g><g transform="translate(309.987)"><g class="a" transform="translate(0)"><rect class="o" width="109.564" height="73.119"/><rect class="f" x="0.5" y="0.5" width="108.564" height="72.119"/></g><g transform="translate(10.689 13.058)"><g transform="translate(0 0)"><rect class="j" width="13.362" height="13.362"/><rect class="i" width="13.362" height="13.362" transform="translate(18.706)"/><rect class="i" width="13.328" height="13.328" transform="translate(38.303)"/><rect class="j" width="13.362" height="13.362" transform="translate(55.228)"/><rect class="j" width="13.362" height="13.362" transform="translate(73.043)"/></g><g transform="translate(0 18.28)"><rect class="j" width="13.362" height="13.362"/><rect class="j" width="13.362" height="13.362" transform="translate(18.706)"/><rect class="i" width="13.328" height="13.328" transform="translate(38.303)"/><rect class="i" width="13.362" height="13.362" transform="translate(55.228)"/><rect class="j" width="13.362" height="13.362" transform="translate(73.043)"/></g><g transform="translate(0 36.572)"><rect class="j" width="13.362" height="13.362" transform="translate(0 0.001)"/><rect class="j" width="13.362" height="13.362" transform="translate(18.706 0.001)"/><rect class="i" width="13.328" height="13.328" transform="translate(38.303 0.001)"/><path class="i" d="M0,0H13.287V13.287H0Z" transform="translate(55.829)"/><rect class="i" width="13.362" height="13.362" transform="translate(73.043 0.001)"/></g></g></g><path class="i" d="M10,4.223a4.8,4.8,0,0,1,6.782,6.771L10,17.788,3.217,10.994A4.8,4.8,0,0,1,10,4.223Z" transform="translate(278.44 11.66)"/></g><g transform="translate(0.449 180.623)"><g class="q" transform="matrix(1, 0, 0, 1, -35.45, -274.9)"><g class="a" transform="translate(35.45 274.9)"><rect class="o" width="419.551" height="73.119"/><rect class="f" x="0.5" y="0.5" width="418.551" height="72.119"/></g></g><g transform="translate(11.58 13.058)"><rect class="h" width="49.883" height="48.746" transform="translate(0)"/><g transform="translate(10.712 5.916)"><path class="c" d="M32.2,37.169H4V33.724a8.714,8.714,0,0,1,8.812-8.612H23.387A8.714,8.714,0,0,1,32.2,33.724Zm-14.1-15.5A10.457,10.457,0,0,1,7.525,11.334,10.457,10.457,0,0,1,18.1,1,10.457,10.457,0,0,1,28.675,11.334,10.457,10.457,0,0,1,18.1,21.668Z" transform="translate(-4 -1)"/></g></g><g transform="translate(73.043 13.058)"><rect class="i" width="74.824" height="5.223" transform="translate(0)"/><rect class="i" width="16.925" height="5.223" transform="translate(88.186)"/></g><g transform="translate(72.957 25.746)"><path class="j" d="M6.782,9.92,2.954,12.014l.855-4.205L.587,4.9l4.357-.5L6.782.5,8.62,4.393l4.357.5L9.755,7.809l.855,4.205Z" transform="translate(-0.587 -0.5)"/><path class="j" d="M6.782,9.92,2.954,12.014l.855-4.205L.587,4.9l4.357-.5L6.782.5,8.62,4.393l4.357.5L9.755,7.809l.855,4.205Z" transform="translate(11.803 -0.5)"/><path class="j" d="M6.782,9.92,2.954,12.014l.855-4.205L.587,4.9l4.357-.5L6.782.5,8.62,4.393l4.357.5L9.755,7.809l.855,4.205Z" transform="translate(24.812 -0.5)"/><path class="j" d="M6.782,9.92,2.954,12.014l.855-4.205L.587,4.9l4.357-.5L6.782.5,8.62,4.393l4.357.5L9.755,7.809l.855,4.205Z" transform="translate(37.202 -0.5)"/><path class="j" d="M6.782,9.92,2.954,12.014l.855-4.205L.587,4.9l4.357-.5L6.782.5,8.62,4.393l4.357.5L9.755,7.809l.855,4.205Z" transform="translate(49.591 -0.5)"/></g><g transform="translate(73.043 47.876)"><rect class="j" width="74.824" height="2.622" transform="translate(0)"/><rect class="j" width="20.488" height="2.622" transform="translate(80.169)"/><rect class="j" width="36.521" height="2.622" transform="translate(105.111)"/><rect class="j" width="16.925" height="2.622" transform="translate(150.54)"/><rect class="j" width="25.832" height="2.622" transform="translate(172.809)"/></g><g transform="translate(73.043 57.451)"><rect class="j" width="74.824" height="2.622" transform="translate(92.64)"/><rect class="j" width="19.597" height="2.622" transform="translate(0)"/><rect class="j" width="37.412" height="2.622" transform="translate(25.832)"/><rect class="j" width="19.597" height="2.622" transform="translate(68.589)"/></g><g transform="translate(309.987 0)"><g class="a" transform="translate(0)"><rect class="o" width="109.564" height="73.119"/><rect class="f" x="0.5" y="0.5" width="108.564" height="72.119"/></g><g transform="translate(10.689 13.058)"><g transform="translate(0 0)"><rect class="j" width="13.362" height="13.362"/><rect class="i" width="13.362" height="13.362" transform="translate(18.706)"/><rect class="i" width="13.328" height="13.328" transform="translate(38.303)"/><rect class="j" width="13.362" height="13.362" transform="translate(55.228)"/><rect class="j" width="13.362" height="13.362" transform="translate(73.043)"/></g><g transform="translate(0 18.28)"><rect class="j" width="13.362" height="13.362"/><rect class="j" width="13.362" height="13.362" transform="translate(18.706)"/><rect class="i" width="13.328" height="13.328" transform="translate(38.303)"/><rect class="i" width="13.362" height="13.362" transform="translate(55.228)"/><rect class="j" width="13.362" height="13.362" transform="translate(73.043)"/></g><g transform="translate(0 36.572)"><rect class="j" width="13.362" height="13.362" transform="translate(0 0.001)"/><rect class="j" width="13.362" height="13.362" transform="translate(18.706 0.001)"/><rect class="i" width="13.328" height="13.328" transform="translate(38.303 0.001)"/><path class="i" d="M0,0H13.287V13.287H0Z" transform="translate(55.829 0)"/><rect class="i" width="13.362" height="13.362" transform="translate(73.043 0.001)"/></g></g></g><path class="i" d="M10,4.223a4.8,4.8,0,0,1,6.782,6.771L10,17.788,3.217,10.994A4.8,4.8,0,0,1,10,4.223Z" transform="translate(278.44 11.66)"/></g><g transform="translate(-20 101.225)"><g class="p" transform="matrix(1, 0, 0, 1, -15, -195.5)"><g class="a" transform="translate(15 195.5)"><rect class="o" width="460" height="81.176"/><rect class="f" x="0.5" y="0.5" width="459" height="80.176"/></g></g><g transform="translate(13.529 13.529)"><rect class="k" width="54.118" height="54.118"/><g transform="translate(11.646 6.85)"><path class="d" d="M34.794,41.417H4V37.568a9.623,9.623,0,0,1,9.623-9.623H25.171a9.623,9.623,0,0,1,9.623,9.623ZM19.4,24.1A11.548,11.548,0,1,1,30.945,12.548,11.548,11.548,0,0,1,19.4,24.1Z" transform="translate(-4 -1)"/></g></g><g class="l" transform="translate(81.176 13.529)"><rect class="d" width="81.176" height="6.765" transform="translate(0)"/><rect class="d" width="20.294" height="6.765" transform="translate(94.706)"/></g><g transform="translate(80.5 27.947)"><path class="j" d="M7.352,11.027l-4.18,2.34.934-4.7L.587,5.415l4.758-.564L7.352.5,9.359,4.851l4.758.564L10.6,8.668l.934,4.7Z" transform="translate(-0.587 -0.5)"/><path class="j" d="M7.352,11.027l-4.18,2.34.934-4.7L.587,5.415l4.758-.564L7.352.5,9.359,4.851l4.758.564L10.6,8.668l.934,4.7Z" transform="translate(12.942 -0.5)"/><path class="j" d="M7.352,11.027l-4.18,2.34.934-4.7L.587,5.415l4.758-.564L7.352.5,9.359,4.851l4.758.564L10.6,8.668l.934,4.7Z" transform="translate(27.148 -0.5)"/><path class="j" d="M7.352,11.027l-4.18,2.34.934-4.7L.587,5.415l4.758-.564L7.352.5,9.359,4.851l4.758.564L10.6,8.668l.934,4.7Z" transform="translate(40.678 -0.5)"/><path class="j" d="M7.352,11.027l-4.18,2.34.934-4.7L.587,5.415l4.758-.564L7.352.5,9.359,4.851l4.758.564L10.6,8.668l.934,4.7Z" transform="translate(54.207 -0.5)"/></g><g transform="translate(81.176 53.441)"><rect class="j" width="81.176" height="3.382" transform="translate(0)"/><rect class="j" width="20.294" height="3.382" transform="translate(87.941)"/><rect class="j" width="40.588" height="3.382" transform="translate(115)"/><rect class="j" width="20.294" height="3.382" transform="translate(162.353)"/><rect class="j" width="27.059" height="3.382" transform="translate(189.412)"/></g><g transform="translate(81.176 63.588)"><rect class="j" width="81.176" height="3.382" transform="translate(101.471)"/><rect class="j" width="20.294" height="3.382" transform="translate(0)"/><rect class="j" width="40.588" height="3.382" transform="translate(27.059)"/><rect class="j" width="20.294" height="3.382" transform="translate(74.412)"/></g><g transform="translate(330)"><g class="a"><rect class="o" width="130" height="81.176"/><rect class="f" x="0.5" y="0.5" width="129" height="80.176"/></g><g transform="translate(13.529 13.529)"><rect class="j" width="13.529" height="13.529"/><rect class="k" width="13.529" height="13.529" transform="translate(20.294)"/><rect class="k" width="13.529" height="13.529" transform="translate(40.588)"/><rect class="j" width="13.529" height="13.529" transform="translate(60.206)"/><rect class="j" width="13.529" height="13.529" transform="translate(80.5)"/><g transform="translate(0 20.294)"><rect class="j" width="13.529" height="13.529"/><rect class="j" width="13.529" height="13.529" transform="translate(20.294)"/><rect class="k" width="13.529" height="13.529" transform="translate(40.588)"/><rect class="k" width="13.529" height="13.529" transform="translate(60.206)"/><rect class="j" width="13.529" height="13.529" transform="translate(80.5)"/></g><g transform="translate(0 40.588)"><rect class="j" width="13.529" height="13.529"/><rect class="j" width="13.529" height="13.529" transform="translate(20.294)"/><rect class="m" width="13.529" height="13.529" transform="translate(40.588)"/><path class="m" d="M0,0H13.529V13.529H0Z" transform="translate(60.206)"/><rect class="m" width="13.529" height="13.529" transform="translate(80.5)"/></g></g></g><path class="n" d="M10.772,4.341a5.262,5.262,0,0,1,7.436,7.424L10.77,19.213,3.334,11.765a5.263,5.263,0,0,1,7.438-7.424Z" transform="translate(306.144 12.559)"/></g></g></g></svg>