<svg xmlns="http://www.w3.org/2000/svg" width="24" height="24.001" viewBox="0 0 24 24.001">
    <g transform="translate(-13 -5)">
        <rect fill="none" width="24" height="24" transform="translate(13 5)" />
        <path fill="#fff" d="M15.318,20.306H8.131V12.175H7.682l-3.594,2.7v-2.7H0V0H14.869V8.131H23V20.306H18.913V23ZM9.479,18.957h6.289l1.8,1.349V18.957h4.088V9.479H9.479Zm-8.131-8.13H5.436v1.348l1.8-1.348h.9v-2.7h.932l-.337-.674H6.189l-.825,1.65L4.159,8.5l3.3-6.6,3.111,6.223h2.953V1.349H1.348ZM6.863,6.11H8.051L7.457,4.921Zm8.68,10.147a4.765,4.765,0,0,1-2.7,1.308V16.217a3.488,3.488,0,0,0,1.75-.925,4.919,4.919,0,0,1-.982-1.77H12.174V12.175h2.7V10.827h1.348v1.348h2.7v1.348H17.471a4.937,4.937,0,0,1-.983,1.77,3.49,3.49,0,0,0,1.751.925v1.348A4.771,4.771,0,0,1,15.543,16.257Zm0-1.939a4.147,4.147,0,0,0,.5-.8h-.995A4.19,4.19,0,0,0,15.543,14.318Z" transform="translate(14 6)" />
    </g>
</svg>