<svg xmlns="http://www.w3.org/2000/svg" width="16" height="14" viewBox="0 0 16 14">
  <defs>
    <style>
      .cls-1 {
        fill: #1c1c1c;
        fill-rule: evenodd;
      }
    </style>
  </defs>
  <path class="cls-1" d="M10.042,11.694a1.819,1.819,0,0,0-1.817,1.817H7.01a1.819,1.819,0,0,0-1-1.624v0.02a2.4,2.4,0,0,0-1.215-.193V11.694H1.214l0.02,0.034H0.059V9.747L0.07,9.765V7.514H0.059V6.3H0.07V0.631H5.192A3.029,3.029,0,0,1,7.617,1.845,3.029,3.029,0,0,1,10.042.631h5.123V11.694H10.042ZM7.01,3.663A1.819,1.819,0,0,0,5.192,1.846H1.284v8.633H5.192a3.016,3.016,0,0,1,1.817.606V3.663Zm6.94-1.817H10.042A1.819,1.819,0,0,0,8.224,3.663v7.422a3.016,3.016,0,0,1,1.817-.607H13.95V1.846ZM9.4,8.058h3.17V9.273H9.4V8.058Zm0-2.43h3.17V6.843H9.4V5.628Zm0-2.43h3.17V4.413H9.4V3.2ZM2.473,8.058h3.17V9.273H2.473V8.058Zm0-2.43h3.17V6.843H2.473V5.628Zm0-2.43h3.17V4.413H2.473V3.2Z"/>
</svg>
