<svg xmlns="http://www.w3.org/2000/svg" width="15" height="15" viewBox="0 0 15 15">
  <defs>
    <style>
      .cls-1 {
        fill: #1c1c1c;
        fill-rule: evenodd;
      }
    </style>
  </defs>
  <path class="cls-1" d="M12.336,1.427H11.078V0.771a0.438,0.438,0,1,0-.875,0V1.427H4.078V0.771a0.438,0.438,0,1,0-.875,0V1.427H1.945a1.807,1.807,0,0,0-1.8,1.8v9.3a1.807,1.807,0,0,0,1.8,1.8H12.336a1.807,1.807,0,0,0,1.8-1.8v-9.3A1.807,1.807,0,0,0,12.336,1.427ZM1.945,2.3H3.2V2.74a0.438,0.438,0,0,0,.875,0V2.3H10.2V2.74a0.438,0.438,0,0,0,.875,0V2.3h1.258a0.931,0.931,0,0,1,.93.93V4.271H1.016V3.232A0.931,0.931,0,0,1,1.945,2.3ZM12.336,13.458H1.945a0.931,0.931,0,0,1-.93-0.93V5.146h12.25v7.383A0.931,0.931,0,0,1,12.336,13.458Z"/>
</svg>
