<svg xmlns="http://www.w3.org/2000/svg" width="16" height="12" viewBox="0 0 16 12">
  <metadata><?xpacket begin="﻿" id="W5M0MpCehiHzreSzNTczkc9d"?>
<x:xmpmeta xmlns:x="adobe:ns:meta/" x:xmptk="Adobe XMP Core 5.6-c142 79.160924, 2017/07/13-01:06:39        ">
   <rdf:RDF xmlns:rdf="http://www.w3.org/1999/02/22-rdf-syntax-ns#">
      <rdf:Description rdf:about=""/>
   </rdf:RDF>
</x:xmpmeta>
                                                                                                    
                                                                                                    
                                                                                                    
                                                                                                    
                                                                                                    
                                                                                                    
                                                                                                    
                                                                                                    
                                                                                                    
                                                                                                    
                                                                                                    
                                                                                                    
                                                                                                    
                                                                                                    
                                                                                                    
                                                                                                    
                                                                                                    
                                                                                                    
                                                                                                    
                                                                                                    
                           
<?xpacket end="w"?></metadata>
<defs>
    <style>
      .cls-1 {
        fill: #e84c3d;
        fill-rule: evenodd;
      }
    </style>
  </defs>
  <path id="Forma_1" data-name="Forma 1" class="cls-1" d="M16,10a1.982,1.982,0,0,1-.257.962L10.691,5.309l5-4.372A1.985,1.985,0,0,1,16,2v8ZM8,6.335l6.953-6.084A1.975,1.975,0,0,0,14,0H2a1.968,1.968,0,0,0-.953.252Zm1.938-.368L8.329,7.376a0.5,0.5,0,0,1-.658,0L6.061,5.967,0.945,11.691A1.974,1.974,0,0,0,2,12H14a1.974,1.974,0,0,0,1.055-.308ZM0.311,0.937A1.986,1.986,0,0,0,0,2v8a1.976,1.976,0,0,0,.257.962L5.308,5.308Z"/>
</svg>
