<svg xmlns="http://www.w3.org/2000/svg" width="13" height="13" viewBox="0 0 13 13">
  <metadata><?xpacket begin="﻿" id="W5M0MpCehiHzreSzNTczkc9d"?>
<x:xmpmeta xmlns:x="adobe:ns:meta/" x:xmptk="Adobe XMP Core 5.6-c142 79.160924, 2017/07/13-01:06:39        ">
   <rdf:RDF xmlns:rdf="http://www.w3.org/1999/02/22-rdf-syntax-ns#">
      <rdf:Description rdf:about=""/>
   </rdf:RDF>
</x:xmpmeta>
                                                                                                    
                                                                                                    
                                                                                                    
                                                                                                    
                                                                                                    
                                                                                                    
                                                                                                    
                                                                                                    
                                                                                                    
                                                                                                    
                                                                                                    
                                                                                                    
                                                                                                    
                                                                                                    
                                                                                                    
                                                                                                    
                                                                                                    
                                                                                                    
                                                                                                    
                                                                                                    
                           
<?xpacket end="w"?></metadata>
<defs>
    <style>
      .cls-1 {
        fill: #e84c3d;
        fill-rule: evenodd;
      }
    </style>
  </defs>
  <path id="Forma_1" data-name="Forma 1" class="cls-1" d="M12.994,10.259a0.629,0.629,0,0,1-.193.551l-1.83,1.818a1.026,1.026,0,0,1-.323.234,1.332,1.332,0,0,1-.392.124l-0.083.007Q10.1,13,9.993,13a6.081,6.081,0,0,1-2.278-.53A11.982,11.982,0,0,1,5.8,11.415,14.312,14.312,0,0,1,3.511,9.488a15.08,15.08,0,0,1-1.6-1.818A12.943,12.943,0,0,1,.9,6.065,8.645,8.645,0,0,1,.319,4.729,7.085,7.085,0,0,1,.057,3.7,3.406,3.406,0,0,1,0,3.015Q0.016,2.767.016,2.74A1.337,1.337,0,0,1,.14,2.347,1.028,1.028,0,0,1,.374,2.024L2.2,0.192A0.605,0.605,0,0,1,2.644,0a0.512,0.512,0,0,1,.317.1,0.957,0.957,0,0,1,.234.255l1.472,2.8a0.67,0.67,0,0,1,.069.482,0.858,0.858,0,0,1-.234.441L3.828,4.75a0.227,0.227,0,0,0-.048.09,0.336,0.336,0,0,0-.021.1,2.482,2.482,0,0,0,.248.661,6.07,6.07,0,0,0,.509.806A8.944,8.944,0,0,0,5.493,7.5a9.079,9.079,0,0,0,1.1.985,6.353,6.353,0,0,0,.805.516,2.144,2.144,0,0,0,.5.2L8.067,9.24a0.335,0.335,0,0,0,.089-0.021,0.228,0.228,0,0,0,.089-0.048l0.784-.8a0.843,0.843,0,0,1,.578-0.22,0.72,0.72,0,0,1,.372.083H9.993L12.649,9.8A0.694,0.694,0,0,1,12.994,10.259Z"/>
</svg>
