<svg xmlns="http://www.w3.org/2000/svg" width="15" height="16" viewBox="0 0 15 16">
  <defs>
    <style>
      .cls-1 {
        fill-rule: evenodd;
      }
    </style>
  </defs>
  <path class="cls-1" d="M7.583,11.458A3.708,3.708,0,1,1,11.292,7.75,3.712,3.712,0,0,1,7.583,11.458Zm0-6.8a3.09,3.09,0,1,0,3.09,3.09A3.094,3.094,0,0,0,7.583,4.66ZM8.819,9.3a0.311,0.311,0,0,1-.185-0.062L7.4,8.306a0.309,0.309,0,0,1-.124-0.247V6.2a0.309,0.309,0,0,1,.618,0V7.9L9,8.739A0.309,0.309,0,0,1,8.819,9.3ZM0.643,9.6a0.309,0.309,0,0,1-.3-0.242A7.429,7.429,0,0,1,7.583.333a7.35,7.35,0,0,1,5.876,2.9,0.309,0.309,0,1,1-.49.376A6.8,6.8,0,0,0,.944,9.228,0.309,0.309,0,0,1,.71,9.6,0.316,0.316,0,0,1,.643,9.6h0Zm6.941,5.563a7.35,7.35,0,0,1-5.876-2.9,0.309,0.309,0,1,1,.49-0.376A6.793,6.793,0,0,0,14.382,7.75a6.372,6.372,0,0,0-.165-1.473,0.309,0.309,0,1,1,.6-0.143A6.986,6.986,0,0,1,15,7.75a7.425,7.425,0,0,1-7.417,7.417h0Zm-5.841,0a0.309,0.309,0,0,1-.309-0.306L1.4,11.77a0.308,0.308,0,0,1,.09-0.22,0.3,0.3,0,0,1,.219-0.092H4.8a0.309,0.309,0,0,1,0,.618H2.024l0.028,2.778a0.309,0.309,0,0,1-.306.312h0ZM13.455,4.042h-3.09a0.309,0.309,0,0,1,0-.618h2.781V0.642a0.309,0.309,0,0,1,.618,0v3.09A0.309,0.309,0,0,1,13.455,4.042Z"/>
  <path id="Shape_1_copy" data-name="Shape 1 copy" class="cls-1" d="M7.583,11.458A3.708,3.708,0,1,1,11.292,7.75,3.712,3.712,0,0,1,7.583,11.458Zm0-6.8a3.09,3.09,0,1,0,3.09,3.09A3.094,3.094,0,0,0,7.583,4.66ZM8.819,9.3a0.311,0.311,0,0,1-.185-0.062L7.4,8.306a0.309,0.309,0,0,1-.124-0.247V6.2a0.309,0.309,0,0,1,.618,0V7.9L9,8.739A0.309,0.309,0,0,1,8.819,9.3ZM0.643,9.6a0.309,0.309,0,0,1-.3-0.242A7.429,7.429,0,0,1,7.583.333a7.35,7.35,0,0,1,5.876,2.9,0.309,0.309,0,1,1-.49.376A6.8,6.8,0,0,0,.944,9.228,0.309,0.309,0,0,1,.71,9.6,0.316,0.316,0,0,1,.643,9.6h0Zm6.941,5.563a7.35,7.35,0,0,1-5.876-2.9,0.309,0.309,0,1,1,.49-0.376A6.793,6.793,0,0,0,14.382,7.75a6.372,6.372,0,0,0-.165-1.473,0.309,0.309,0,1,1,.6-0.143A6.986,6.986,0,0,1,15,7.75a7.425,7.425,0,0,1-7.417,7.417h0Zm-5.841,0a0.309,0.309,0,0,1-.309-0.306L1.4,11.77a0.308,0.308,0,0,1,.09-0.22,0.3,0.3,0,0,1,.219-0.092H4.8a0.309,0.309,0,0,1,0,.618H2.024l0.028,2.778a0.309,0.309,0,0,1-.306.312h0ZM13.455,4.042h-3.09a0.309,0.309,0,0,1,0-.618h2.781V0.642a0.309,0.309,0,0,1,.618,0v3.09A0.309,0.309,0,0,1,13.455,4.042Z"/>
</svg>
