<svg xmlns="http://www.w3.org/2000/svg" width="134" height="30" viewBox="0 0 134 30">
  <metadata><?xpacket begin="﻿" id="W5M0MpCehiHzreSzNTczkc9d"?>
<x:xmpmeta xmlns:x="adobe:ns:meta/" x:xmptk="Adobe XMP Core 5.6-c142 79.160924, 2017/07/13-01:06:39        ">
   <rdf:RDF xmlns:rdf="http://www.w3.org/1999/02/22-rdf-syntax-ns#">
      <rdf:Description rdf:about=""/>
   </rdf:RDF>
</x:xmpmeta>
                                                                                                    
                                                                                                    
                                                                                                    
                                                                                                    
                                                                                                    
                                                                                                    
                                                                                                    
                                                                                                    
                                                                                                    
                                                                                                    
                                                                                                    
                                                                                                    
                                                                                                    
                                                                                                    
                                                                                                    
                                                                                                    
                                                                                                    
                                                                                                    
                                                                                                    
                                                                                                    
                           
<?xpacket end="w"?></metadata>
<defs>
    <style>
      .cls-1 {
        fill: #e84c3d;
      }

      .cls-1, .cls-2 {
        fill-rule: evenodd;
      }

      .cls-2 {
        fill: #333;
      }
    </style>
  </defs>
  <path id="eTutor" class="cls-1" d="M24.072,18.805a12.649,12.649,0,0,0-1.483-6.213,10.509,10.509,0,0,0-4.128-4.171,12.048,12.048,0,0,0-6-1.484A12.36,12.36,0,0,0,6.356,8.442a10.831,10.831,0,0,0-4.235,4.193A12.013,12.013,0,0,0,.594,18.676a11.834,11.834,0,0,0,1.57,6.084,10.835,10.835,0,0,0,4.451,4.192,14.184,14.184,0,0,0,6.665,1.505,14.251,14.251,0,0,0,5.332-.946,9.705,9.705,0,0,0,3.913-2.8l-2.881-3.311A8.37,8.37,0,0,1,13.408,25.9a8.1,8.1,0,0,1-4.967-1.483A6.243,6.243,0,0,1,5.969,20.4H23.986q0.086-1.032.086-1.591h0Zm-11.61-7.568a6.409,6.409,0,0,1,4.386,1.548,6.341,6.341,0,0,1,2.107,4.042H5.926a6.353,6.353,0,0,1,6.536-5.59h0Z"/>
  <path id="eTutor-2" data-name="eTutor" class="cls-2" d="M30.91,30.157H36.5V4.787h9.976V0.057H20.934v4.73H30.91v25.37ZM65.611,7.2v11.61a7.169,7.169,0,0,1-1.7,5.139,6.024,6.024,0,0,1-4.579,1.785A5.12,5.12,0,0,1,55.355,24.2a6.651,6.651,0,0,1-1.4-4.622V7.2H48.583V20.31q0,5.031,2.645,7.59a9.98,9.98,0,0,0,7.246,2.559,10.378,10.378,0,0,0,4.171-.839,8.554,8.554,0,0,0,3.225-2.386v2.924h5.117V7.2H65.611ZM89.476,25.083a4.722,4.722,0,0,1-3.01.946,3.065,3.065,0,0,1-2.365-.881,3.631,3.631,0,0,1-.817-2.559V11.667h6.149v-4.3H83.284V2.121H77.909V7.367H74.125v4.3h3.784V22.718a7.612,7.612,0,0,0,2.064,5.762,8.114,8.114,0,0,0,5.848,1.978,10.362,10.362,0,0,0,2.859-.387,6.329,6.329,0,0,0,2.3-1.161Zm14.62,5.375a13.118,13.118,0,0,0,6.321-1.505,10.971,10.971,0,0,0,4.364-4.192,11.832,11.832,0,0,0,1.57-6.084,11.72,11.72,0,0,0-1.57-6.063,11.021,11.021,0,0,0-4.364-4.171,13.937,13.937,0,0,0-12.6,0,11.019,11.019,0,0,0-4.364,4.171,11.723,11.723,0,0,0-1.569,6.063,11.835,11.835,0,0,0,1.569,6.084,10.969,10.969,0,0,0,4.364,4.192,13.024,13.024,0,0,0,6.278,1.505h0Zm0-4.6a6.5,6.5,0,0,1-4.881-1.978,7.166,7.166,0,0,1-1.913-5.2,7.167,7.167,0,0,1,1.913-5.2A6.5,6.5,0,0,1,104.1,11.5a6.568,6.568,0,0,1,4.9,1.978,7.122,7.122,0,0,1,1.935,5.2,7.121,7.121,0,0,1-1.935,5.2,6.567,6.567,0,0,1-4.9,1.978h0Zm21.671-15.308V7.2H120.65V30.157h5.375V19.02a7.29,7.29,0,0,1,1.763-5.267,6.5,6.5,0,0,1,4.9-1.827,6.815,6.815,0,0,1,1.247.129V6.937q-5.847,0-8.17,3.612h0Z"/>
</svg>
