<?xml version="1.0" encoding="utf-8"?>
<!-- Generator: Adobe Illustrator 24.0.1, SVG Export Plug-In . SVG Version: 6.00 Build 0)  -->
<svg version="1.1" id="Layer_1" xmlns="http://www.w3.org/2000/svg" xmlns:xlink="http://www.w3.org/1999/xlink" x="0px" y="0px"
	 viewBox="0 0 7 15" style="enable-background:new 0 0 7 15;" xml:space="preserve">
<style type="text/css">
	.st0{fill-rule:evenodd;clip-rule:evenodd;fill:#1C1C1C;}
</style>
<path class="st0" d="M2.8,1.1v1.2c-1.6,0.6-2.5,2.4-1.9,4c0.4,1.3,1.6,2.1,3,2.1c0.6,0,1.1,0.5,1.1,1.1s-0.5,1.1-1.1,1.1l0,0
	c-0.6-0.1-1.1-0.3-1.4-0.8C2.1,9.3,1.4,9.3,1,9.6s-0.5,1-0.1,1.5l0,0c0.5,0.6,1.2,1.1,1.9,1.4v1.2c0,0.6,0.5,1.1,1.1,1.1
	s1.1-0.5,1.1-1.1v-1.2c1.6-0.6,2.5-2.4,1.9-4c-0.4-1.3-1.6-2.1-3-2.1c-0.6,0-1.1-0.4-1.1-1c0-0.6,0.4-1.1,1-1.1c0,0,0,0,0.1,0
	c0.4,0,0.8,0.2,1.1,0.6c0.4,0.4,1.1,0.4,1.5,0c0.4-0.4,0.4-1.1,0-1.5c-0.4-0.4-1-0.8-1.6-1V1.1C4.9,0.5,4.4,0,3.8,0S2.8,0.5,2.8,1.1
	z"/>
</svg>
