<svg xmlns="http://www.w3.org/2000/svg" width="10" height="16" viewBox="0 0 10 16">
  <defs>
    <style>
      .cls-1 {
        fill: #080808;
        fill-rule: evenodd;
      }
    </style>
  </defs>
  <path class="cls-1" d="M5.326,2.021V3.274a3.233,3.233,0,0,0-1.9,4.091A3.121,3.121,0,0,0,6.367,9.506a1.07,1.07,0,0,1,0,2.138h0a1.874,1.874,0,0,1-1.352-.81A1.019,1.019,0,0,0,3.55,10.7a1.093,1.093,0,0,0-.128,1.509h0a4.322,4.322,0,0,0,1.9,1.393v1.248a1.041,1.041,0,1,0,2.081,0V13.6A3.231,3.231,0,0,0,9.317,9.514a3.12,3.12,0,0,0-2.95-2.146A1.07,1.07,0,0,1,6.3,5.229H6.367a1.654,1.654,0,0,1,1.125.559,1.019,1.019,0,0,0,1.471-.023A1.094,1.094,0,0,0,8.94,4.25a4.007,4.007,0,0,0-1.533-.985V2.021A1.041,1.041,0,1,0,5.326,2.021Z"/>
</svg>
