<svg xmlns="http://www.w3.org/2000/svg" width="17" height="14" viewBox="0 0 17 14">
  <defs>
    <style>
      .cls-1 {
        fill-rule: evenodd;
      }
    </style>
  </defs>
  <path id="Shape_2_copy" data-name="Shape 2 copy" class="cls-1" d="M8.555,1.937H8.313a0.227,0.227,0,0,0,0,.453H8.555A0.227,0.227,0,0,0,8.555,1.937Zm2.9,0H11.218a0.227,0.227,0,0,0,0,.453H11.46A0.227,0.227,0,0,0,11.46,1.937Zm-5.81,0H5.408a0.227,0.227,0,0,0,0,.453H5.65A0.227,0.227,0,0,0,5.65,1.937Zm10.514,9.61L15.454,0.888A0.954,0.954,0,0,0,14.505,0H2.363a0.954,0.954,0,0,0-.949.888L0.7,11.547a0.95,0.95,0,0,0,.726.988v0.043a1.439,1.439,0,0,0,1.437,1.438H14a1.439,1.439,0,0,0,1.437-1.437V12.535A0.95,0.95,0,0,0,16.164,11.547ZM14.141,0.611A0.493,0.493,0,0,1,14.505.453a0.5,0.5,0,0,1,.5.465l0.165,2.472h-1l-0.16-2.406A0.494,0.494,0,0,1,14.141.611ZM1.866,0.918a0.5,0.5,0,0,1,.5-0.465,0.5,0.5,0,0,1,.5.531L2.7,3.391h-1ZM14.986,12.578a0.985,0.985,0,0,1-.984.984H2.866a0.985,0.985,0,0,1-.984-0.984V12.534a0.955,0.955,0,0,0,.719-0.86l0.036-.534a0.227,0.227,0,1,0-.452-0.03l-0.036.534a0.5,0.5,0,0,1-.5.465,0.5,0.5,0,0,1-.5-0.531L1.671,3.844h1l-0.42,6.3a0.227,0.227,0,1,0,.452.03L3.156,3.359h9.151a0.227,0.227,0,0,0,0-.453H3.186L3.312,1.015A0.955,0.955,0,0,0,3.173.453H13.7a0.955,0.955,0,0,0-.139.562l0.126,1.891H13.275a0.227,0.227,0,0,0,0,.453h0.437l0.554,8.315a0.955,0.955,0,0,0,.719.86v0.044Zm0.593-.627a0.493,0.493,0,0,1-.364.158,0.5,0.5,0,0,1-.5-0.465l-0.52-7.8h1l0.515,7.734A0.494,0.494,0,0,1,15.579,11.951ZM11.118,5.562a0.377,0.377,0,0,0-.523,0h0l-3.5,3.5L5.857,7.819a0.376,0.376,0,0,0-.542.523L5.324,8.351l1.506,1.5a0.377,0.377,0,0,0,.532,0l3.765-3.762A0.376,0.376,0,0,0,11.118,5.562Z"/>
  <path id="Shape_2_copy_2" data-name="Shape 2 copy 2" class="cls-1" d="M8.555,1.937H8.313a0.227,0.227,0,0,0,0,.453H8.555A0.227,0.227,0,0,0,8.555,1.937Zm2.9,0H11.218a0.227,0.227,0,0,0,0,.453H11.46A0.227,0.227,0,0,0,11.46,1.937Zm-5.81,0H5.408a0.227,0.227,0,0,0,0,.453H5.65A0.227,0.227,0,0,0,5.65,1.937Zm10.514,9.61L15.454,0.888A0.954,0.954,0,0,0,14.505,0H2.363a0.954,0.954,0,0,0-.949.888L0.7,11.547a0.95,0.95,0,0,0,.726.988v0.043a1.439,1.439,0,0,0,1.437,1.438H14a1.439,1.439,0,0,0,1.437-1.437V12.535A0.95,0.95,0,0,0,16.164,11.547ZM14.141,0.611A0.493,0.493,0,0,1,14.505.453a0.5,0.5,0,0,1,.5.465l0.165,2.472h-1l-0.16-2.406A0.494,0.494,0,0,1,14.141.611ZM1.866,0.918a0.5,0.5,0,0,1,.5-0.465,0.5,0.5,0,0,1,.5.531L2.7,3.391h-1ZM14.986,12.578a0.985,0.985,0,0,1-.984.984H2.866a0.985,0.985,0,0,1-.984-0.984V12.534a0.955,0.955,0,0,0,.719-0.86l0.036-.534a0.227,0.227,0,1,0-.452-0.03l-0.036.534a0.5,0.5,0,0,1-.5.465,0.5,0.5,0,0,1-.5-0.531L1.671,3.844h1l-0.42,6.3a0.227,0.227,0,1,0,.452.03L3.156,3.359h9.151a0.227,0.227,0,0,0,0-.453H3.186L3.312,1.015A0.955,0.955,0,0,0,3.173.453H13.7a0.955,0.955,0,0,0-.139.562l0.126,1.891H13.275a0.227,0.227,0,0,0,0,.453h0.437l0.554,8.315a0.955,0.955,0,0,0,.719.86v0.044Zm0.593-.627a0.493,0.493,0,0,1-.364.158,0.5,0.5,0,0,1-.5-0.465l-0.52-7.8h1l0.515,7.734A0.494,0.494,0,0,1,15.579,11.951ZM11.118,5.562a0.377,0.377,0,0,0-.523,0h0l-3.5,3.5L5.857,7.819a0.376,0.376,0,0,0-.542.523L5.324,8.351l1.506,1.5a0.377,0.377,0,0,0,.532,0l3.765-3.762A0.376,0.376,0,0,0,11.118,5.562Z"/>
</svg>
