<svg xmlns="http://www.w3.org/2000/svg" width="15" height="15" viewBox="0 0 15 15">
  <metadata><?xpacket begin="﻿" id="W5M0MpCehiHzreSzNTczkc9d"?>
<x:xmpmeta xmlns:x="adobe:ns:meta/" x:xmptk="Adobe XMP Core 5.6-c142 79.160924, 2017/07/13-01:06:39        ">
   <rdf:RDF xmlns:rdf="http://www.w3.org/1999/02/22-rdf-syntax-ns#">
      <rdf:Description rdf:about=""/>
   </rdf:RDF>
</x:xmpmeta>
                                                                                                    
                                                                                                    
                                                                                                    
                                                                                                    
                                                                                                    
                                                                                                    
                                                                                                    
                                                                                                    
                                                                                                    
                                                                                                    
                                                                                                    
                                                                                                    
                                                                                                    
                                                                                                    
                                                                                                    
                                                                                                    
                                                                                                    
                                                                                                    
                                                                                                    
                                                                                                    
                           
<?xpacket end="w"?></metadata>
<defs>
    <style>
      .cls-1 {
        fill: #fff;
        fill-rule: evenodd;
      }
    </style>
  </defs>
  <path id="Forma_1" data-name="Forma 1" class="cls-1" d="M0.487,15h1.95a0.512,0.512,0,0,0,.487-0.533V5.135A0.512,0.512,0,0,0,2.437,4.6H0.487A0.512,0.512,0,0,0,0,5.135v9.331A0.512,0.512,0,0,0,.487,15Zm0-12.038h1.95a0.511,0.511,0,0,0,.487-0.533v-1.9A0.512,0.512,0,0,0,2.437,0H0.487A0.512,0.512,0,0,0,0,.532v1.9A0.511,0.511,0,0,0,.487,2.961ZM14.266,5.684a3,3,0,0,0-1.212-.974,4.06,4.06,0,0,0-1.769-.382A4.18,4.18,0,0,0,7.955,5.97c-0.181.218-.313,0.17-0.313-0.124V5.135A0.512,0.512,0,0,0,7.155,4.6H5.413a0.512,0.512,0,0,0-.487.533v9.331A0.512,0.512,0,0,0,5.413,15h1.95a0.512,0.512,0,0,0,.487-0.533V11.221a11.39,11.39,0,0,1,.224-2.78A2.286,2.286,0,0,1,8.9,7.234a2.2,2.2,0,0,1,1.363-.456A1.633,1.633,0,0,1,11.28,7.1a1.772,1.772,0,0,1,.609.894,10.416,10.416,0,0,1,.187,2.535v3.94a0.512,0.512,0,0,0,.487.533h1.95A0.512,0.512,0,0,0,15,14.466V9.182a10.926,10.926,0,0,0-.161-2.153A3.689,3.689,0,0,0,14.266,5.684Z"/>
</svg>
