<svg xmlns="http://www.w3.org/2000/svg" width="15" height="14" viewBox="0 0 15 14">
  <metadata><?xpacket begin="﻿" id="W5M0MpCehiHzreSzNTczkc9d"?>
<x:xmpmeta xmlns:x="adobe:ns:meta/" x:xmptk="Adobe XMP Core 5.6-c142 79.160924, 2017/07/13-01:06:39        ">
   <rdf:RDF xmlns:rdf="http://www.w3.org/1999/02/22-rdf-syntax-ns#">
      <rdf:Description rdf:about=""/>
   </rdf:RDF>
</x:xmpmeta>
                                                                                                    
                                                                                                    
                                                                                                    
                                                                                                    
                                                                                                    
                                                                                                    
                                                                                                    
                                                                                                    
                                                                                                    
                                                                                                    
                                                                                                    
                                                                                                    
                                                                                                    
                                                                                                    
                                                                                                    
                                                                                                    
                                                                                                    
                                                                                                    
                                                                                                    
                                                                                                    
                           
<?xpacket end="w"?></metadata>
<defs>
    <style>
      .cls-1 {
        fill: #fff;
        fill-rule: evenodd;
      }
    </style>
  </defs>
  <path id="Forma_1" data-name="Forma 1" class="cls-1" d="M12.375,8.555a2.582,2.582,0,0,0-2.067,1.065L5.23,7.594c0.005-.069.02-0.135,0.02-0.206a2.781,2.781,0,0,0-.037-0.382l5.2-2.491a2.571,2.571,0,0,0,1.959.928A2.678,2.678,0,0,0,15,2.722a2.627,2.627,0,1,0-5.25,0,2.775,2.775,0,0,0,.037.382l-5.2,2.491a2.57,2.57,0,0,0-1.959-.929A2.678,2.678,0,0,0,0,7.388,2.678,2.678,0,0,0,2.625,10.11,2.582,2.582,0,0,0,4.692,9.046L9.77,11.071c-0.005.069-.02,0.135-0.02,0.206A2.627,2.627,0,1,0,12.375,8.555Z"/>
</svg>
