<svg xmlns="http://www.w3.org/2000/svg" width="19" height="16" viewBox="0 0 19 16">
  <metadata><?xpacket begin="﻿" id="W5M0MpCehiHzreSzNTczkc9d"?>
<x:xmpmeta xmlns:x="adobe:ns:meta/" x:xmptk="Adobe XMP Core 5.6-c142 79.160924, 2017/07/13-01:06:39        ">
   <rdf:RDF xmlns:rdf="http://www.w3.org/1999/02/22-rdf-syntax-ns#">
      <rdf:Description rdf:about=""/>
   </rdf:RDF>
</x:xmpmeta>
                                                                                                    
                                                                                                    
                                                                                                    
                                                                                                    
                                                                                                    
                                                                                                    
                                                                                                    
                                                                                                    
                                                                                                    
                                                                                                    
                                                                                                    
                                                                                                    
                                                                                                    
                                                                                                    
                                                                                                    
                                                                                                    
                                                                                                    
                                                                                                    
                                                                                                    
                                                                                                    
                           
<?xpacket end="w"?></metadata>
<defs>
    <style>
      .cls-1 {
        fill: #fff;
        fill-rule: evenodd;
      }
    </style>
  </defs>
  <path id="Forma_1" data-name="Forma 1" class="cls-1" d="M17.473,2.26q-0.133.041-.266,0.076c-0.542.144-.592-0.046-0.2-0.464a3.781,3.781,0,0,0,.466-0.612c0.3-.494.04-0.709-0.475-0.479Q16.723,0.9,16.439,1a2.251,2.251,0,0,1-1.755-.41A3.586,3.586,0,0,0,12.65,0,3.622,3.622,0,0,0,9.929,1.18,3.992,3.992,0,0,0,8.8,4.037a4.479,4.479,0,0,0,.025.465c0.027,0.256-.383.441-0.937,0.359A10.287,10.287,0,0,1,4.475,3.718,11,11,0,0,1,1.643,1.531C1.251,1.11.722,1.146,0.576,1.714a4.237,4.237,0,0,0-.131,1.06A4.137,4.137,0,0,0,1.451,5.5c0.348,0.4.295,0.634-.19,0.492a6,6,0,0,1-.84-0.341V5.674A4.021,4.021,0,0,0,1.3,8.243,3.865,3.865,0,0,0,2.549,9.3C3.05,9.556,3.284,9.7,3,9.74a3.746,3.746,0,0,1-.511.034q-0.174,0-.364-0.017c-0.2-.018-0.237.421,0.068,0.914a3.963,3.963,0,0,0,.928,1.034,3.694,3.694,0,0,0,1.239.653c0.538,0.161.646,0.454,0.166,0.757A7.247,7.247,0,0,1,.587,14.237q-0.243,0-.465-0.011c-0.257-.013-0.084.224,0.411,0.5A10.277,10.277,0,0,0,5.565,16a10.769,10.769,0,0,0,3.846-.681,9.674,9.674,0,0,0,3.072-1.825,12.052,12.052,0,0,0,2.2-2.631,12.03,12.03,0,0,0,1.828-6.35c0-.1,0-0.185,0-0.262a2.964,2.964,0,0,1,.771-0.94q0.276-.272.528-0.571C18.174,2.3,18.01,2.1,17.473,2.26Z"/>
</svg>
