<svg xmlns="http://www.w3.org/2000/svg" width="30" height="35" viewBox="0 0 30 35">
  <metadata><?xpacket begin="﻿" id="W5M0MpCehiHzreSzNTczkc9d"?>
<x:xmpmeta xmlns:x="adobe:ns:meta/" x:xmptk="Adobe XMP Core 5.6-c142 79.160924, 2017/07/13-01:06:39        ">
   <rdf:RDF xmlns:rdf="http://www.w3.org/1999/02/22-rdf-syntax-ns#">
      <rdf:Description rdf:about=""/>
   </rdf:RDF>
</x:xmpmeta>
                                                                                                    
                                                                                                    
                                                                                                    
                                                                                                    
                                                                                                    
                                                                                                    
                                                                                                    
                                                                                                    
                                                                                                    
                                                                                                    
                                                                                                    
                                                                                                    
                                                                                                    
                                                                                                    
                                                                                                    
                                                                                                    
                                                                                                    
                                                                                                    
                                                                                                    
                                                                                                    
                           
<?xpacket end="w"?></metadata>
<defs>
    <style>
      .cls-1 {
        fill-rule: evenodd;
      }
    </style>
  </defs>
  <path class="cls-1" d="M14.894,18.859h0.234a6.769,6.769,0,0,0,5.152-2.211C23.094,13.5,22.626,8.11,22.575,7.6c-0.183-3.863-2.024-5.711-3.544-6.574A8.178,8.178,0,0,0,15.1,0H14.975a8.193,8.193,0,0,0-3.932.993C9.508,1.855,7.637,3.7,7.454,7.6,7.4,8.11,6.936,13.5,9.749,16.648A6.742,6.742,0,0,0,14.894,18.859ZM9.406,7.777c0-.022.007-0.043,0.007-0.058,0.241-5.2,3.961-5.755,5.554-5.755h0.088c1.973,0.043,5.328.841,5.554,5.755a0.14,0.14,0,0,0,.007.058c0.007,0.051.519,4.979-1.805,7.574A4.809,4.809,0,0,1,15.048,16.9H14.975a4.793,4.793,0,0,1-3.756-1.551C8.9,12.771,9.4,7.82,9.406,7.777ZM30.03,27.8V27.781c0-.058-0.007-0.116-0.007-0.181-0.044-1.435-.139-4.791-3.311-5.864l-0.073-.022a21.166,21.166,0,0,1-6.066-2.74,0.991,0.991,0,0,0-1.374.239,0.972,0.972,0,0,0,.241,1.363A22.846,22.846,0,0,0,26.112,23.6c1.7,0.6,1.893,2.406,1.944,4.059a1.446,1.446,0,0,0,.007.181,13.043,13.043,0,0,1-.154,2.24A27.071,27.071,0,0,1,15.026,33.05,27.227,27.227,0,0,1,2.134,30.072a12.353,12.353,0,0,1-.153-2.24c0-.058.007-0.116,0.007-0.181,0.051-1.652.241-3.457,1.944-4.059A23.057,23.057,0,0,0,10.6,20.57a0.972,0.972,0,0,0,.241-1.363,0.991,0.991,0,0,0-1.374-.239,20.933,20.933,0,0,1-6.066,2.74c-0.029.007-.051,0.015-0.073,0.022-3.172,1.08-3.267,4.436-3.311,5.864a1.441,1.441,0,0,1-.007.181V27.8a11.027,11.027,0,0,0,.373,3.283,0.931,0.931,0,0,0,.38.457C0.987,31.681,6.241,35,15.033,35S29.079,31.673,29.3,31.536a0.972,0.972,0,0,0,.38-0.457A11.569,11.569,0,0,0,30.03,27.8Z"/>
</svg>
