<svg xmlns="http://www.w3.org/2000/svg" width="17.381" height="17.381" viewBox="0 0 17.381 17.381"><defs><style>.a{fill:#111;}</style></defs><g transform="translate(-3 -3)"><path class="a" d="M14.836,2.545a8.69,8.69,0,0,0-12.29,12.29,8.69,8.69,0,0,0,12.29-12.29Zm-.719.719A7.719,7.719,0,0,1,15.3,4.792H11.925a13.122,13.122,0,0,0-.575-2.067,7.043,7.043,0,0,0-.737-1.467A7.627,7.627,0,0,1,14.117,3.264ZM11.27,8.69a20.139,20.139,0,0,1-.194,2.835H6.3A20.134,20.134,0,0,1,6.111,8.69a20.092,20.092,0,0,1,.2-2.882h4.758A20.1,20.1,0,0,1,11.27,8.69ZM8.69,1.017c.581,0,1.219.773,1.708,2.068a11.826,11.826,0,0,1,.49,1.708h-4.4a11.818,11.818,0,0,1,.49-1.708C7.471,1.79,8.11,1.017,8.69,1.017ZM3.264,3.264a7.626,7.626,0,0,1,3.5-2.006,7.044,7.044,0,0,0-.737,1.467,13.115,13.115,0,0,0-.575,2.067H2.078A7.722,7.722,0,0,1,3.264,3.264ZM1.017,8.69a7.664,7.664,0,0,1,.558-2.882H5.286a21.777,21.777,0,0,0-.007,5.717H1.556A7.667,7.667,0,0,1,1.017,8.69Zm2.248,5.426A7.716,7.716,0,0,1,2.05,12.542h3.4a13.182,13.182,0,0,0,.585,2.113,7.044,7.044,0,0,0,.737,1.467A7.627,7.627,0,0,1,3.264,14.117ZM8.69,16.364c-.581,0-1.219-.773-1.708-2.068a11.889,11.889,0,0,1-.5-1.754H10.9a11.892,11.892,0,0,1-.5,1.754C9.91,15.591,9.271,16.364,8.69,16.364Zm5.426-2.248a7.627,7.627,0,0,1-3.5,2.006,7.043,7.043,0,0,0,.737-1.467,13.183,13.183,0,0,0,.585-2.113h3.4A7.719,7.719,0,0,1,14.117,14.117ZM12.1,11.525a21.244,21.244,0,0,0,.185-2.835A21.218,21.218,0,0,0,12.1,5.809h3.711a7.725,7.725,0,0,1,.019,5.717Z" transform="translate(3 3)"/></g></svg>