<svg xmlns="http://www.w3.org/2000/svg" width="16" height="12.284" viewBox="0 0 16 12.284"><path d="M7.545,6.22,5.075,8.242H2.455v2.909h2.62l2.471,2.022Zm-2.99,6.385H1.727A.727.727,0,0,1,1,11.879V7.515a.727.727,0,0,1,.727-.727H4.556l3.85-3.151A.364.364,0,0,1,9,3.919V15.475a.364.364,0,0,1-.594.281L4.556,12.606Zm9.831,3.007-1.03-1.03a6.546,6.546,0,0,0-.214-9.953L14.175,3.6a8,8,0,0,1,.211,12.016Zm-2.577-2.577L10.775,12a2.909,2.909,0,0,0-.233-4.772l1.047-1.047a4.364,4.364,0,0,1,.221,6.852Z" transform="translate(-1 -3.555)"/></svg>