<svg xmlns="http://www.w3.org/2000/svg" width="44" height="34" viewBox="0 0 44 34">
  <defs>
    <style>
      .cls-1 {
        fill-rule: evenodd;
      }
    </style>
  </defs>
  <path class="cls-1" d="M314.327,399.046h-4.478v-6.353A3.688,3.688,0,0,0,306.176,389h-28.5A3.688,3.688,0,0,0,274,392.693v16.568a3.688,3.688,0,0,0,3.673,3.693h4.478v6.353A3.688,3.688,0,0,0,285.824,423h28.5A3.688,3.688,0,0,0,318,419.307V402.738A3.687,3.687,0,0,0,314.327,399.046ZM276.1,392.693a1.58,1.58,0,0,1,1.574-1.583h28.5a1.58,1.58,0,0,1,1.574,1.583v1.473H276.1v-1.473Zm6.052,10.045v8.105h-4.478a1.58,1.58,0,0,1-1.574-1.582v-8.1h6.4A3.683,3.683,0,0,0,282.151,402.738Zm-6.052-3.686v-2.776H307.75v2.77H285.824c-0.071,0-.141,0-0.211.006H276.1Zm38.228,21.838h-28.5a1.58,1.58,0,0,1-1.574-1.583V402.738a1.581,1.581,0,0,1,1.446-1.576h23.1a1.088,1.088,0,0,0,.114-0.006h5.413a1.58,1.58,0,0,1,1.574,1.582v16.569h0A1.58,1.58,0,0,1,314.327,420.89Zm-11.09-14.953a5.021,5.021,0,0,0-3.158,1.116,5.007,5.007,0,0,0-3.165-1.117,5.087,5.087,0,0,0,0,10.173,5.007,5.007,0,0,0,3.165-1.117,5.016,5.016,0,0,0,3.158,1.117A5.086,5.086,0,0,0,303.237,405.937Zm-4.491,7.423a2.924,2.924,0,0,1-1.832.639,2.976,2.976,0,0,1,0-5.952,2.931,2.931,0,0,1,1.832.638A5.094,5.094,0,0,0,298.746,413.36ZM303.237,414a2.976,2.976,0,1,1,2.96-2.976A2.971,2.971,0,0,1,303.237,414Z" transform="translate(-274 -389)"/>
</svg>
