<svg xmlns="http://www.w3.org/2000/svg" width="36" height="34" viewBox="0 0 36 34">
  <defs>
    <style>
      .cls-1 {
        fill-rule: evenodd;
      }
    </style>
  </defs>
  <path id="Forma_1" data-name="Forma 1" class="cls-1" d="M297.688,176H274.311A6.27,6.27,0,0,0,268,182.213v14.193a6.27,6.27,0,0,0,6.311,6.213H289.2l7.128,7.017a1.277,1.277,0,0,0,1.376.269,1.243,1.243,0,0,0,.779-1.148V202.57A6.257,6.257,0,0,0,304,196.406V182.213A6.27,6.27,0,0,0,297.688,176Zm3.787,20.406a3.761,3.761,0,0,1-3.787,3.728h-0.466a1.254,1.254,0,0,0-1.263,1.243v4.38l-5.342-5.259a1.274,1.274,0,0,0-.893-0.364H274.311a3.762,3.762,0,0,1-3.787-3.728V182.213a3.763,3.763,0,0,1,3.787-3.728h23.377a3.762,3.762,0,0,1,3.787,3.728v14.193ZM295.291,184.8H276.709a1.243,1.243,0,1,0,0,2.485h18.582A1.243,1.243,0,1,0,295.291,184.8Zm0,6.958H276.709a1.243,1.243,0,1,0,0,2.485h18.582A1.243,1.243,0,1,0,295.291,191.757Z" transform="translate(-268 -176)"/>
</svg>
